<svg version="1.1" viewBox="0.0 0.0 1024.0 768.0" fill="none" stroke="none" stroke-linecap="square" stroke-miterlimit="10" xmlns:xlink="http://www.w3.org/1999/xlink" xmlns="http://www.w3.org/2000/svg"><clipPath id="p.0"><path d="m0 0l1024.0 0l0 768.0l-1024.0 0l0 -768.0z" clip-rule="nonzero"/></clipPath><g clip-path="url(#p.0)"><path fill="#000000" fill-opacity="0.0" d="m0 0l1024.0 0l0 768.0l-1024.0 0z" fill-rule="evenodd"/><path fill="#cfe2f3" d="m158.44226 149.37007l31.716537 0l0 276.12598l-31.716537 0z" fill-rule="evenodd"/><path stroke="#000000" stroke-width="1.0" stroke-linejoin="round" stroke-linecap="butt" d="m158.44226 149.37007l31.716537 0l0 276.12598l-31.716537 0z" fill-rule="evenodd"/><path fill="#4a86e8" d="m211.25853 149.37007l31.716537 0l0 276.12598l-31.716537 0z" fill-rule="evenodd"/><path stroke="#000000" stroke-width="1.0" stroke-linejoin="round" stroke-linecap="butt" d="m211.25853 149.37007l31.716537 0l0 276.12598l-31.716537 0z" fill-rule="evenodd"/><path fill="#b4a7d6" d="m271.2349 149.37007l31.716553 0l0 276.12598l-31.716553 0z" fill-rule="evenodd"/><path stroke="#000000" stroke-width="1.0" stroke-linejoin="round" stroke-linecap="butt" d="m271.2349 149.37007l31.716553 0l0 276.12598l-31.716553 0z" fill-rule="evenodd"/><path fill="#cfe2f3" d="m326.81497 149.37007l31.716522 0l0 276.12598l-31.716522 0z" fill-rule="evenodd"/><path stroke="#000000" stroke-width="1.0" stroke-linejoin="round" stroke-linecap="butt" d="m326.81497 149.37007l31.716522 0l0 276.12598l-31.716522 0z" fill-rule="evenodd"/><path fill="#4a86e8" d="m379.63123 149.37007l31.716553 0l0 276.12598l-31.716553 0z" fill-rule="evenodd"/><path stroke="#000000" stroke-width="1.0" stroke-linejoin="round" stroke-linecap="butt" d="m379.63123 149.37007l31.716553 0l0 276.12598l-31.716553 0z" fill-rule="evenodd"/><path fill="#b4a7d6" d="m442.3714 149.37007l31.716522 0l0 276.12598l-31.716522 0z" fill-rule="evenodd"/><path stroke="#000000" stroke-width="1.0" stroke-linejoin="round" stroke-linecap="butt" d="m442.3714 149.37007l31.716522 0l0 276.12598l-31.716522 0z" fill-rule="evenodd"/><path fill="#cfe2f3" d="m495.18765 149.37007l31.716522 0l0 276.12598l-31.716522 0z" fill-rule="evenodd"/><path stroke="#000000" stroke-width="1.0" stroke-linejoin="round" stroke-linecap="butt" d="m495.18765 149.37007l31.716522 0l0 276.12598l-31.716522 0z" fill-rule="evenodd"/><path fill="#4a86e8" d="m555.16406 149.37007l31.716492 0l0 276.12598l-31.716492 0z" fill-rule="evenodd"/><path stroke="#000000" stroke-width="1.0" stroke-linejoin="round" stroke-linecap="butt" d="m555.16406 149.37007l31.716492 0l0 276.12598l-31.716492 0z" fill-rule="evenodd"/><path fill="#b4a7d6" d="m610.7441 149.37007l31.716553 0l0 276.12598l-31.716553 0z" fill-rule="evenodd"/><path stroke="#000000" stroke-width="1.0" stroke-linejoin="round" stroke-linecap="butt" d="m610.7441 149.37007l31.716553 0l0 276.12598l-31.716553 0z" fill-rule="evenodd"/><path fill="#cfe2f3" d="m663.56036 149.37007l31.716553 0l0 276.12598l-31.716553 0z" fill-rule="evenodd"/><path stroke="#000000" stroke-width="1.0" stroke-linejoin="round" stroke-linecap="butt" d="m663.56036 149.37007l31.716553 0l0 276.12598l-31.716553 0z" fill-rule="evenodd"/><path fill="#4a86e8" d="m726.30054 149.37007l31.716553 0l0 276.12598l-31.716553 0z" fill-rule="evenodd"/><path stroke="#000000" stroke-width="1.0" stroke-linejoin="round" stroke-linecap="butt" d="m726.30054 149.37007l31.716553 0l0 276.12598l-31.716553 0z" fill-rule="evenodd"/><path fill="#b4a7d6" d="m779.1168 149.37007l31.716492 0l0 276.12598l-31.716492 0z" fill-rule="evenodd"/><path stroke="#000000" stroke-width="1.0" stroke-linejoin="round" stroke-linecap="butt" d="m779.1168 149.37007l31.716492 0l0 276.12598l-31.716492 0z" fill-rule="evenodd"/><path fill="#cfe2f3" d="m839.0932 149.37007l31.716492 0l0 276.12598l-31.716492 0z" fill-rule="evenodd"/><path stroke="#000000" stroke-width="1.0" stroke-linejoin="round" stroke-linecap="butt" d="m839.0932 149.37007l31.716492 0l0 276.12598l-31.716492 0z" fill-rule="evenodd"/><path fill="#000000" fill-opacity="0.0" d="m176.84908 310.9449l589.03937 0l0 68.724396l-589.03937 0z" fill-rule="evenodd"/><path fill="#000000" fill-opacity="0.0" d="m322.37796 374.58267l0 -177.41731l37.82675 0l0 177.41731z" fill-rule="evenodd"/><path fill="#000000" d="m349.29794 364.2233l-13.359375 0l0 -1.78125l11.78125 0l0 -6.5625l1.578125 0l0 8.34375zm-11.46875 -10.250702l-1.890625 0l0 -1.640625l1.890625 0l0 1.640625zm11.46875 0l-9.671875 0l0 -1.640625l9.671875 0l0 1.640625zm0 -4.1448364l-9.671875 0l0 -1.46875l1.375 0q-1.59375 -1.0625 -1.59375 -3.078125q0 -0.875 0.3125 -1.609375q0.3125 -0.734375 0.828125 -1.09375q0.5 -0.375 1.203125 -0.515625q0.453125 -0.09375 1.59375 -0.09375l5.953125 0l0 1.640625l-5.890625 0q-1.0 0 -1.484375 0.203125q-0.5 0.1875 -0.796875 0.671875q-0.296875 0.484375 -0.296875 1.140625q0 1.046875 0.671875 1.8125q0.65625 0.75 2.515625 0.75l5.28125 0l0 1.640625zm-3.109375 -17.000702l0.203125 -1.6875q1.484375 0.40625 2.3125 1.484375q0.8125 1.078125 0.8125 2.765625q0 2.125 -1.296875 3.375q-1.3125 1.234375 -3.671875 1.234375q-2.453125 0 -3.796875 -1.25q-1.34375 -1.265625 -1.34375 -3.265625q0 -1.9375 1.328125 -3.15625q1.3125 -1.234375 3.703125 -1.234375q0.15625 0 0.4375 0l0 7.21875q1.59375 -0.09375 2.453125 -0.90625q0.84375 -0.8125 0.84375 -2.015625q0 -0.90625 -0.46875 -1.546875q-0.484375 -0.640625 -1.515625 -1.015625zm-2.65625 5.390625l0 -5.40625q-1.21875 0.109375 -1.828125 0.625q-0.953125 0.78125 -0.953125 2.03125q0 1.125 0.765625 1.90625q0.75 0.765625 2.015625 0.84375zm4.578125 -15.453857q0.765625 0.921875 1.09375 1.765625q0.3125 0.828125 0.3125 1.796875q0 1.59375 -0.78125 2.453125q-0.78125 0.859375 -1.984375 0.859375q-0.71875 0 -1.296875 -0.328125q-0.59375 -0.328125 -0.9375 -0.84375q-0.359375 -0.53125 -0.546875 -1.1875q-0.125 -0.46875 -0.25 -1.453125q-0.234375 -1.984375 -0.5625 -2.921875q-0.34375 -0.015625 -0.421875 -0.015625q-1.0 0 -1.421875 0.46875q-0.546875 0.625 -0.546875 1.875q0 1.15625 0.40625 1.703125q0.40625 0.546875 1.421875 0.8125l-0.21875 1.609375q-1.015625 -0.21875 -1.640625 -0.71875q-0.640625 -0.5 -0.984375 -1.453125q-0.34375 -0.953125 -0.34375 -2.1875q0 -1.25 0.296875 -2.015625q0.28125 -0.78125 0.734375 -1.140625q0.4375 -0.375 1.109375 -0.515625q0.421875 -0.078125 1.515625 -0.078125l2.1875 0q2.28125 0 2.890625 -0.109375q0.59375 -0.109375 1.15625 -0.40625l0 1.703125q-0.515625 0.265625 -1.1875 0.328125zm-3.671875 0.140625q0.375 0.890625 0.625 2.671875q0.140625 1.015625 0.328125 1.4375q0.1875 0.421875 0.53125 0.65625q0.34375 0.21875 0.78125 0.21875q0.65625 0 1.09375 -0.5q0.4375 -0.5 0.4375 -1.453125q0 -0.9375 -0.40625 -1.671875q-0.421875 -0.75 -1.140625 -1.09375q-0.5625 -0.265625 -1.640625 -0.265625l-0.609375 0zm4.859375 -4.188202l-9.671875 0l0 -1.46875l1.46875 0q-1.03125 -0.5625 -1.359375 -1.03125q-0.328125 -0.484375 -0.328125 -1.0625q0 -0.828125 0.53125 -1.6875l1.515625 0.5625q-0.359375 0.609375 -0.359375 1.203125q0 0.546875 0.328125 0.96875q0.328125 0.421875 0.890625 0.609375q0.875 0.28125 1.921875 0.28125l5.0625 0l0 1.625zm3.921875 -14.536621q-1.703125 1.359375 -4.0 2.296875q-2.296875 0.9375 -4.765625 0.9375q-2.15625 0 -4.140625 -0.703125q-2.3125 -0.828125 -4.59375 -2.53125l0 -1.171875q1.890625 1.09375 2.703125 1.453125q1.25 0.546875 2.625 0.875q1.703125 0.390625 3.421875 0.390625q4.375 0 8.75 -2.71875l0 1.171875zm-7.453125 -2.634552l-0.21875 -1.640625q1.40625 -0.28125 2.015625 -0.953125q0.609375 -0.6875 0.609375 -1.65625q0 -1.15625 -0.796875 -1.953125q-0.796875 -0.796875 -1.984375 -0.796875q-1.125 0 -1.859375 0.734375q-0.734375 0.734375 -0.734375 1.875q0 0.46875 0.171875 1.15625l-1.4375 -0.1875q0.015625 -0.15625 0.015625 -0.265625q0 -1.046875 -0.546875 -1.875q-0.546875 -0.84375 -1.671875 -0.84375q-0.90625 0 -1.5 0.609375q-0.59375 0.609375 -0.59375 1.578125q0 0.953125 0.609375 1.59375q0.59375 0.640625 1.796875 0.8125l-0.296875 1.640625q-1.640625 -0.296875 -2.546875 -1.359375q-0.90625 -1.0625 -0.90625 -2.65625q0 -1.09375 0.46875 -2.0q0.46875 -0.921875 1.28125 -1.40625q0.8125 -0.5 1.71875 -0.5q0.859375 0 1.578125 0.46875q0.703125 0.46875 1.125 1.375q0.28125 -1.1875 1.140625 -1.84375q0.859375 -0.65625 2.15625 -0.65625q1.734375 0 2.953125 1.28125q1.21875 1.265625 1.21875 3.21875q0 1.765625 -1.046875 2.921875q-1.046875 1.15625 -2.71875 1.328125zm0.03125 -10.375702l-0.140625 -1.71875q1.25 -0.1875 1.890625 -0.875q0.625 -0.703125 0.625 -1.6875q0 -1.1875 -0.890625 -2.0q-0.890625 -0.828125 -2.359375 -0.828125q-1.40625 0 -2.21875 0.796875q-0.8125 0.78125 -0.8125 2.0625q0 0.78125 0.359375 1.421875q0.359375 0.640625 0.9375 1.0l-0.203125 1.546875l-6.859375 -1.296875l0 -6.640625l1.5625 0l0 5.328125l3.59375 0.71875q-0.84375 -1.203125 -0.84375 -2.515625q0 -1.75 1.21875 -2.953125q1.203125 -1.203125 3.109375 -1.203125q1.8125 0 3.140625 1.046875q1.625 1.296875 1.625 3.515625q0 1.8125 -1.015625 2.96875q-1.03125 1.15625 -2.71875 1.3125zm-3.09375 -10.375732q-2.359375 0 -3.796875 -0.484375q-1.453125 -0.484375 -2.234375 -1.4375q-0.78125 -0.96875 -0.78125 -2.421875q0 -1.078125 0.4375 -1.890625q0.421875 -0.8125 1.25 -1.328125q0.8125 -0.53125 1.984375 -0.828125q1.15625 -0.3125 3.140625 -0.3125q2.359375 0 3.8125 0.484375q1.4375 0.484375 2.234375 1.453125q0.78125 0.953125 0.78125 2.421875q0 1.921875 -1.390625 3.03125q-1.671875 1.3125 -5.4375 1.3125zm0 -1.671875q3.296875 0 4.390625 -0.765625q1.078125 -0.78125 1.078125 -1.90625q0 -1.140625 -1.09375 -1.90625q-1.09375 -0.765625 -4.375 -0.765625q-3.296875 0 -4.375 0.765625q-1.078125 0.765625 -1.078125 1.921875q0 1.125 0.953125 1.796875q1.21875 0.859375 4.5 0.859375zm6.59375 -9.578827l-1.875 0l0 -1.875l1.875 0q1.03125 0 1.65625 0.375q0.640625 0.359375 0.984375 1.15625l-0.703125 0.453125q-0.21875 -0.515625 -0.671875 -0.765625q-0.4375 -0.25 -1.265625 -0.28125l0 0.9375zm-3.53125 -9.491608l-0.21875 -1.640625q1.40625 -0.28125 2.015625 -0.953125q0.609375 -0.6875 0.609375 -1.6562653q0 -1.15625 -0.796875 -1.953125q-0.796875 -0.796875 -1.984375 -0.796875q-1.125 0 -1.859375 0.734375q-0.734375 0.734375 -0.734375 1.875q0 0.46876526 0.171875 1.1562653l-1.4375 -0.1875q0.015625 -0.15625 0.015625 -0.265625q0 -1.0468903 -0.546875 -1.8750153q-0.546875 -0.84375 -1.671875 -0.84375q-0.90625 0 -1.5 0.609375q-0.59375 0.609375 -0.59375 1.578125q0 0.95314026 0.609375 1.5937653q0.59375 0.640625 1.796875 0.8125l-0.296875 1.640625q-1.640625 -0.296875 -2.546875 -1.359375q-0.90625 -1.0625 -0.90625 -2.6562653q0 -1.09375 0.46875 -2.0q0.46875 -0.921875 1.28125 -1.40625q0.8125 -0.5 1.71875 -0.5q0.859375 0 1.578125 0.46875q0.703125 0.46875 1.125 1.375q0.28125 -1.1875 1.140625 -1.84375q0.859375 -0.65625 2.15625 -0.65625q1.734375 0 2.953125 1.28125q1.21875 1.265625 1.21875 3.21875q0 1.7656403 -1.046875 2.9218903q-1.046875 1.15625 -2.71875 1.328125zm0.03125 -10.375732l-0.140625 -1.71875q1.25 -0.1875 1.890625 -0.875q0.625 -0.703125 0.625 -1.6875q0 -1.1875 -0.890625 -2.0q-0.890625 -0.828125 -2.359375 -0.828125q-1.40625 0 -2.21875 0.796875q-0.8125 0.78125 -0.8125 2.0625q0 0.78125 0.359375 1.421875q0.359375 0.640625 0.9375 1.0l-0.203125 1.546875l-6.859375 -1.296875l0 -6.640625l1.5625 0l0 5.328125l3.59375 0.71875q-0.84375 -1.203125 -0.84375 -2.515625q0 -1.75 1.21875 -2.953125q1.203125 -1.203125 3.109375 -1.203125q1.8125 0 3.140625 1.046875q1.625 1.296875 1.625 3.515625q0 1.8125 -1.015625 2.96875q-1.03125 1.15625 -2.71875 1.3125zm-3.09375 -10.375717q-2.359375 0 -3.796875 -0.484375q-1.453125 -0.484375 -2.234375 -1.4375q-0.78125 -0.96875 -0.78125 -2.421875q0 -1.078125 0.4375 -1.890625q0.421875 -0.8125 1.25 -1.328125q0.8125 -0.53125 1.984375 -0.828125q1.15625 -0.3125 3.140625 -0.3125q2.359375 0 3.8125 0.484375q1.4375 0.484375 2.234375 1.453125q0.78125 0.953125 0.78125 2.421875q0 1.921875 -1.390625 3.03125q-1.671875 1.3125 -5.4375 1.3125zm0 -1.671875q3.296875 0 4.390625 -0.765625q1.078125 -0.78125 1.078125 -1.90625q0 -1.140625 -1.09375 -1.90625q-1.09375 -0.765625 -4.375 -0.765625q-3.296875 0 -4.375 0.765625q-1.078125 0.765625 -1.078125 1.921875q0 1.125 0.953125 1.796875q1.21875 0.859375 4.5 0.859375zm10.515625 -10.235092l0 1.1875q-4.375 -2.734375 -8.75 -2.734375q-1.71875 0 -3.390625 0.390625q-1.375 0.3125 -2.625 0.875q-0.828125 0.359375 -2.734375 1.46875l0 -1.1875q2.28125 -1.703125 4.59375 -2.53125q1.984375 -0.6875 4.140625 -0.6875q2.46875 0 4.765625 0.9375q2.296875 0.9375 4.0 2.28125z" fill-rule="nonzero"/><path fill="#000000" fill-opacity="0.0" d="m152.33202 362.56693l0 -153.38582l37.826782 0l0 153.38582z" fill-rule="evenodd"/><path fill="#000000" d="m179.25201 352.20755l-13.359375 0l0 -1.78125l11.78125 0l0 -6.5625l1.578125 0l0 8.34375zm-11.46875 -10.250702l-1.890625 0l0 -1.640625l1.890625 0l0 1.640625zm11.46875 0l-9.671875 0l0 -1.640625l9.671875 0l0 1.640625zm0 -4.1448364l-9.671875 0l0 -1.46875l1.375 0q-1.59375 -1.0625 -1.59375 -3.078125q0 -0.875 0.3125 -1.609375q0.3125 -0.734375 0.828125 -1.09375q0.5 -0.375 1.203125 -0.515625q0.453125 -0.09375 1.59375 -0.09375l5.953125 0l0 1.640625l-5.890625 0q-1.0 0 -1.484375 0.203125q-0.5 0.1875 -0.796875 0.671875q-0.296875 0.484375 -0.296875 1.140625q0 1.046875 0.671875 1.8125q0.65625 0.75 2.515625 0.75l5.28125 0l0 1.640625zm-3.109375 -17.000702l0.203125 -1.6875q1.484375 0.40625 2.3125 1.484375q0.8125 1.078125 0.8125 2.765625q0 2.125 -1.296875 3.375q-1.3125 1.234375 -3.671875 1.234375q-2.453125 0 -3.796875 -1.25q-1.34375 -1.265625 -1.34375 -3.265625q0 -1.9375 1.328125 -3.15625q1.3125 -1.234375 3.703125 -1.234375q0.15625 0 0.4375 0l0 7.21875q1.59375 -0.09375 2.453125 -0.90625q0.84375 -0.8125 0.84375 -2.015625q0 -0.90625 -0.46875 -1.546875q-0.484375 -0.640625 -1.515625 -1.015625zm-2.65625 5.390625l0 -5.40625q-1.21875 0.109375 -1.828125 0.625q-0.953125 0.78125 -0.953125 2.03125q0 1.125 0.765625 1.90625q0.75 0.765625 2.015625 0.84375zm4.578125 -15.453857q0.765625 0.921875 1.09375 1.765625q0.3125 0.828125 0.3125 1.796875q0 1.59375 -0.78125 2.453125q-0.78125 0.859375 -1.984375 0.859375q-0.71875 0 -1.296875 -0.328125q-0.59375 -0.328125 -0.9375 -0.84375q-0.359375 -0.53125 -0.546875 -1.1875q-0.125 -0.46875 -0.25 -1.453125q-0.234375 -1.984375 -0.5625 -2.921875q-0.34375 -0.015625 -0.421875 -0.015625q-1.0 0 -1.421875 0.46875q-0.546875 0.625 -0.546875 1.875q0 1.15625 0.40625 1.703125q0.40625 0.546875 1.421875 0.8125l-0.21875 1.609375q-1.015625 -0.21875 -1.640625 -0.71875q-0.640625 -0.5 -0.984375 -1.453125q-0.34375 -0.953125 -0.34375 -2.1875q0 -1.25 0.296875 -2.015625q0.28125 -0.78125 0.734375 -1.140625q0.4375 -0.375 1.109375 -0.515625q0.421875 -0.078125 1.515625 -0.078125l2.1875 0q2.28125 0 2.890625 -0.109375q0.59375 -0.109375 1.15625 -0.40625l0 1.703125q-0.515625 0.265625 -1.1875 0.328125zm-3.671875 0.140625q0.375 0.890625 0.625 2.671875q0.140625 1.015625 0.328125 1.4375q0.1875 0.421875 0.53125 0.65625q0.34375 0.21875 0.78125 0.21875q0.65625 0 1.09375 -0.5q0.4375 -0.5 0.4375 -1.453125q0 -0.9375 -0.40625 -1.671875q-0.421875 -0.75 -1.140625 -1.09375q-0.5625 -0.265625 -1.640625 -0.265625l-0.609375 0zm4.859375 -4.188202l-9.671875 0l0 -1.46875l1.46875 0q-1.03125 -0.5625 -1.359375 -1.03125q-0.328125 -0.484375 -0.328125 -1.0625q0 -0.828125 0.53125 -1.6875l1.515625 0.5625q-0.359375 0.609375 -0.359375 1.203125q0 0.546875 0.328125 0.96875q0.328125 0.421875 0.890625 0.609375q0.875 0.28125 1.921875 0.28125l5.0625 0l0 1.625zm3.921875 -14.536621q-1.703125 1.359375 -4.0 2.296875q-2.296875 0.9375 -4.765625 0.9375q-2.15625 0 -4.140625 -0.703125q-2.3125 -0.828125 -4.59375 -2.53125l0 -1.171875q1.890625 1.09375 2.703125 1.453125q1.25 0.546875 2.625 0.875q1.703125 0.390625 3.421875 0.390625q4.375 0 8.75 -2.71875l0 1.171875zm-3.921875 -3.087677l-9.671875 0l0 -1.46875l1.375 0q-1.59375 -1.0625 -1.59375 -3.078125q0 -0.875 0.3125 -1.609375q0.3125 -0.734375 0.828125 -1.09375q0.5 -0.375 1.203125 -0.515625q0.453125 -0.09375 1.59375 -0.09375l5.953125 0l0 1.640625l-5.890625 0q-1.0 0 -1.484375 0.203125q-0.5 0.1875 -0.796875 0.671875q-0.296875 0.484375 -0.296875 1.140625q0 1.046875 0.671875 1.8125q0.65625 0.75 2.515625 0.75l5.28125 0l0 1.640625zm0 -10.797577l-1.875 0l0 -1.875l1.875 0q1.03125 0 1.65625 0.375q0.640625 0.359375 0.984375 1.15625l-0.703125 0.453125q-0.21875 -0.515625 -0.671875 -0.765625q-0.4375 -0.25 -1.265625 -0.28125l0 0.9375zm-3.53125 -9.491608l-0.21875 -1.640625q1.40625 -0.28125 2.015625 -0.953125q0.609375 -0.6875 0.609375 -1.65625q0 -1.15625 -0.796875 -1.953125q-0.796875 -0.796875 -1.984375 -0.796875q-1.125 0 -1.859375 0.734375q-0.734375 0.734375 -0.734375 1.875q0 0.46875 0.171875 1.15625l-1.4375 -0.1875q0.015625 -0.15625 0.015625 -0.265625q0 -1.046875 -0.546875 -1.875q-0.546875 -0.84375 -1.671875 -0.84375q-0.90625 0 -1.5 0.609375q-0.59375 0.609375 -0.59375 1.578125q0 0.953125 0.609375 1.59375q0.59375 0.640625 1.796875 0.8125l-0.296875 1.640625q-1.640625 -0.296875 -2.546875 -1.359375q-0.90625 -1.0625 -0.90625 -2.65625q0 -1.09375 0.46875 -2.0q0.46875 -0.921875 1.28125 -1.40625q0.8125 -0.5 1.71875 -0.5q0.859375 0 1.578125 0.46875q0.703125 0.46875 1.125 1.375q0.28125 -1.1875 1.140625 -1.84375q0.859375 -0.65625 2.15625 -0.65625q1.734375 0 2.953125 1.28125q1.21875 1.265625 1.21875 3.21875q0 1.765625 -1.046875 2.921875q-1.046875 1.15625 -2.71875 1.328125zm0.03125 -10.375732l-0.140625 -1.71875q1.25 -0.1875 1.890625 -0.875q0.625 -0.703125 0.625 -1.6875q0 -1.1875 -0.890625 -2.0q-0.890625 -0.828125 -2.359375 -0.828125q-1.40625 0 -2.21875 0.796875q-0.8125 0.78125 -0.8125 2.0625q0 0.78125 0.359375 1.421875q0.359375 0.640625 0.9375 1.0l-0.203125 1.546875l-6.859375 -1.296875l0 -6.640625l1.5625 0l0 5.328125l3.59375 0.71875q-0.84375 -1.203125 -0.84375 -2.515625q0 -1.75 1.21875 -2.953125q1.203125 -1.203125 3.109375 -1.203125q1.8125 0 3.140625 1.046875q1.625 1.296875 1.625 3.515625q0 1.8125 -1.015625 2.96875q-1.03125 1.15625 -2.71875 1.3125zm-3.09375 -10.375717q-2.359375 0 -3.796875 -0.484375q-1.453125 -0.484375 -2.234375 -1.4375q-0.78125 -0.96875 -0.78125 -2.421875q0 -1.078125 0.4375 -1.890625q0.421875 -0.8125 1.25 -1.328125q0.8125 -0.53125 1.984375 -0.828125q1.15625 -0.3125 3.140625 -0.3125q2.359375 0 3.8125 0.484375q1.4375 0.484375 2.234375 1.453125q0.78125 0.953125 0.78125 2.421875q0 1.921875 -1.390625 3.03125q-1.671875 1.3125 -5.4375 1.3125zm0 -1.671875q3.296875 0 4.390625 -0.765625q1.078125 -0.78125 1.078125 -1.90625q0 -1.140625 -1.09375 -1.90625q-1.09375 -0.765625 -4.375 -0.765625q-3.296875 0 -4.375 0.765625q-1.078125 0.765625 -1.078125 1.921875q0 1.125 0.953125 1.796875q1.21875 0.859375 4.5 0.859375zm10.515625 -10.235092l0 1.1875q-4.375 -2.734375 -8.75 -2.734375q-1.71875 0 -3.390625 0.390625q-1.375 0.3125 -2.625 0.875q-0.828125 0.359375 -2.734375 1.46875l0 -1.1875q2.28125 -1.703125 4.59375 -2.53125q1.984375 -0.6875 4.140625 -0.6875q2.46875 0 4.765625 0.9375q2.296875 0.9375 4.0 2.28125z" fill-rule="nonzero"/><path fill="#000000" fill-opacity="0.0" d="m660.50525 366.34122l0 -181.79529l37.826782 0l0 181.79529z" fill-rule="evenodd"/><path fill="#000000" d="m687.42523 355.98184l-13.359375 0l0 -1.78125l11.78125 0l0 -6.5625l1.578125 0l0 8.34375zm-11.46875 -10.250732l-1.890625 0l0 -1.640625l1.890625 0l0 1.640625zm11.46875 0l-9.671875 0l0 -1.640625l9.671875 0l0 1.640625zm0 -4.144806l-9.671875 0l0 -1.46875l1.375 0q-1.59375 -1.0625 -1.59375 -3.078125q0 -0.875 0.3125 -1.609375q0.3125 -0.734375 0.828125 -1.09375q0.5 -0.375 1.203125 -0.515625q0.453125 -0.09375 1.59375 -0.09375l5.953125 0l0 1.640625l-5.890625 0q-1.0 0 -1.484375 0.203125q-0.5 0.1875 -0.796875 0.671875q-0.296875 0.484375 -0.296875 1.140625q0 1.046875 0.671875 1.8125q0.65625 0.75 2.515625 0.75l5.28125 0l0 1.640625zm-3.109375 -17.000732l0.203125 -1.6875q1.484375 0.40625 2.3125 1.484375q0.8125 1.078125 0.8125 2.765625q0 2.125 -1.296875 3.375q-1.3125 1.234375 -3.671875 1.234375q-2.453125 0 -3.796875 -1.25q-1.34375 -1.265625 -1.34375 -3.265625q0 -1.9375 1.328125 -3.15625q1.3125 -1.234375 3.703125 -1.234375q0.15625 0 0.4375 0l0 7.21875q1.59375 -0.09375 2.453125 -0.90625q0.84375 -0.8125 0.84375 -2.015625q0 -0.90625 -0.46875 -1.546875q-0.484375 -0.640625 -1.515625 -1.015625zm-2.65625 5.390625l0 -5.40625q-1.21875 0.109375 -1.828125 0.625q-0.953125 0.78125 -0.953125 2.03125q0 1.125 0.765625 1.90625q0.75 0.765625 2.015625 0.84375zm4.578125 -15.453827q0.765625 0.921875 1.09375 1.765625q0.3125 0.828125 0.3125 1.796875q0 1.59375 -0.78125 2.453125q-0.78125 0.859375 -1.984375 0.859375q-0.71875 0 -1.296875 -0.328125q-0.59375 -0.328125 -0.9375 -0.84375q-0.359375 -0.53125 -0.546875 -1.1875q-0.125 -0.46875 -0.25 -1.453125q-0.234375 -1.984375 -0.5625 -2.921875q-0.34375 -0.015625 -0.421875 -0.015625q-1.0 0 -1.421875 0.46875q-0.546875 0.625 -0.546875 1.875q0 1.15625 0.40625 1.703125q0.40625 0.546875 1.421875 0.8125l-0.21875 1.609375q-1.015625 -0.21875 -1.640625 -0.71875q-0.640625 -0.5 -0.984375 -1.453125q-0.34375 -0.953125 -0.34375 -2.1875q0 -1.25 0.296875 -2.015625q0.28125 -0.78125 0.734375 -1.140625q0.4375 -0.375 1.109375 -0.515625q0.421875 -0.078125 1.515625 -0.078125l2.1875 0q2.28125 0 2.890625 -0.109375q0.59375 -0.109375 1.15625 -0.40625l0 1.703125q-0.515625 0.265625 -1.1875 0.328125zm-3.671875 0.140625q0.375 0.890625 0.625 2.671875q0.140625 1.015625 0.328125 1.4375q0.1875 0.421875 0.53125 0.65625q0.34375 0.21875 0.78125 0.21875q0.65625 0 1.09375 -0.5q0.4375 -0.5 0.4375 -1.453125q0 -0.9375 -0.40625 -1.671875q-0.421875 -0.75 -1.140625 -1.09375q-0.5625 -0.265625 -1.640625 -0.265625l-0.609375 0zm4.859375 -4.1882324l-9.671875 0l0 -1.46875l1.46875 0q-1.03125 -0.5625 -1.359375 -1.03125q-0.328125 -0.484375 -0.328125 -1.0625q0 -0.828125 0.53125 -1.6875l1.515625 0.5625q-0.359375 0.609375 -0.359375 1.203125q0 0.546875 0.328125 0.96875q0.328125 0.421875 0.890625 0.609375q0.875 0.28125 1.921875 0.28125l5.0625 0l0 1.625zm3.921875 -14.536591q-1.703125 1.359375 -4.0 2.296875q-2.296875 0.9375 -4.765625 0.9375q-2.15625 0 -4.140625 -0.703125q-2.3125 -0.828125 -4.59375 -2.53125l0 -1.171875q1.890625 1.09375 2.703125 1.453125q1.25 0.546875 2.625 0.875q1.703125 0.390625 3.421875 0.390625q4.375 0 8.75 -2.71875l0 1.171875zm-5.5 -11.243927l1.578125 0l0 8.828125q-0.59375 0.015625 -1.140625 -0.1875q-0.90625 -0.34375 -1.78125 -1.078125q-0.875 -0.75 -2.015625 -2.15625q-1.78125 -2.171875 -2.828125 -2.9375q-1.046875 -0.765625 -1.96875 -0.765625q-0.984375 0 -1.640625 0.703125q-0.671875 0.6875 -0.671875 1.8125q0 1.1875 0.71875 1.90625q0.703125 0.703125 1.953125 0.703125l-0.171875 1.6875q-1.890625 -0.171875 -2.875 -1.296875q-0.984375 -1.140625 -0.984375 -3.03125q0 -1.921875 1.0625 -3.046875q1.0625 -1.125 2.640625 -1.125q0.796875 0 1.578125 0.328125q0.78125 0.328125 1.640625 1.09375q0.84375 0.75 2.34375 2.53125q1.234375 1.46875 1.6875 1.890625q0.4375 0.421875 0.875 0.6875l0 -6.546875zm-1.921875 -1.7663574l-0.140625 -1.71875q1.25 -0.1875 1.890625 -0.875q0.625 -0.703125 0.625 -1.6875q0 -1.1875 -0.890625 -2.0q-0.890625 -0.828125 -2.359375 -0.828125q-1.40625 0 -2.21875 0.796875q-0.8125 0.78125 -0.8125 2.0625q0 0.78125 0.359375 1.421875q0.359375 0.640625 0.9375 1.0l-0.203125 1.546875l-6.859375 -1.296875l0 -6.640625l1.5625 0l0 5.328125l3.59375 0.71875q-0.84375 -1.203125 -0.84375 -2.515625q0 -1.75 1.21875 -2.953125q1.203125 -1.203125 3.109375 -1.203125q1.8125 0 3.140625 1.046875q1.625 1.296875 1.625 3.515625q0 1.8125 -1.015625 2.96875q-1.03125 1.15625 -2.71875 1.3125zm-3.09375 -10.375702q-2.359375 0 -3.796875 -0.484375q-1.453125 -0.484375 -2.234375 -1.4375q-0.78125 -0.96875 -0.78125 -2.421875q0 -1.078125 0.4375 -1.890625q0.421875 -0.8125 1.25 -1.328125q0.8125 -0.53125 1.984375 -0.828125q1.15625 -0.3125 3.140625 -0.3125q2.359375 0 3.8125 0.484375q1.4375 0.484375 2.234375 1.453125q0.78125 0.953125 0.78125 2.421875q0 1.921875 -1.390625 3.03125q-1.671875 1.3125 -5.4375 1.3125zm0 -1.671875q3.296875 0 4.390625 -0.765625q1.078125 -0.78125 1.078125 -1.90625q0 -1.140625 -1.09375 -1.90625q-1.09375 -0.765625 -4.375 -0.765625q-3.296875 0 -4.375 0.765625q-1.078125 0.765625 -1.078125 1.921875q0 1.125 0.953125 1.796875q1.21875 0.859375 4.5 0.859375zm6.59375 -9.578857l-1.875 0l0 -1.875l1.875 0q1.03125 0 1.65625 0.375q0.640625 0.359375 0.984375 1.15625l-0.703125 0.453125q-0.21875 -0.515625 -0.671875 -0.765625q-0.4375 -0.25 -1.265625 -0.28125l0 0.9375zm0 -15.663483l0 1.640625l-10.453125 0q0.5625 0.59375 1.140625 1.5625q0.5625 0.953125 0.84375 1.71875l-1.59375 0q-0.640625 -1.375 -1.5625 -2.40625q-0.921875 -1.03125 -1.78125 -1.453125l0 -1.0625l13.40625 0zm-6.59375 -4.203842q-2.359375 0 -3.796875 -0.484375q-1.453125 -0.484375 -2.234375 -1.4375q-0.78125 -0.96875 -0.78125 -2.421875q0 -1.078125 0.4375 -1.890625q0.421875 -0.8125 1.25 -1.328125q0.8125 -0.53125 1.984375 -0.828125q1.15625 -0.3125 3.140625 -0.3125q2.359375 0 3.8125 0.484375q1.4375 0.484375 2.234375 1.453125q0.78125 0.953125 0.78125 2.421875q0 1.921875 -1.390625 3.03125q-1.671875 1.3125 -5.4375 1.3125zm0 -1.671875q3.296875 0 4.390625 -0.765625q1.078125 -0.78125 1.078125 -1.90625q0 -1.140625 -1.09375 -1.90625q-1.09375 -0.765625 -4.375 -0.765625q-3.296875 0 -4.375 0.765625q-1.078125 0.765625 -1.078125 1.921875q0 1.125 0.953125 1.796875q1.21875 0.859375 4.5 0.859375zm0 -8.703842q-2.359375 0 -3.796875 -0.484375q-1.453125 -0.484375 -2.234375 -1.4375q-0.78125 -0.96875 -0.78125 -2.421875q0 -1.078125 0.4375 -1.890625q0.421875 -0.8125 1.25 -1.328125q0.8125 -0.53125 1.984375 -0.828125q1.15625 -0.3125 3.140625 -0.3125q2.359375 0 3.8125 0.484375q1.4375 0.484375 2.234375 1.453125q0.78125 0.953125 0.78125 2.421875q0 1.921875 -1.390625 3.03125q-1.671875 1.3125 -5.4375 1.3125zm0 -1.671875q3.296875 0 4.390625 -0.765625q1.078125 -0.78125 1.078125 -1.90625q0 -1.140625 -1.09375 -1.90625q-1.09375 -0.765625 -4.375 -0.765625q-3.296875 0 -4.375 0.765625q-1.078125 0.765625 -1.078125 1.921875q0 1.125 0.953125 1.796875q1.21875 0.859375 4.5 0.859375zm10.515625 -10.235092l0 1.1875q-4.375 -2.734375 -8.75 -2.734375q-1.71875 0 -3.390625 0.390625q-1.375 0.3125 -2.625 0.875q-0.828125 0.359375 -2.734375 1.46875l0 -1.1875q2.28125 -1.703125 4.59375 -2.53125q1.984375 -0.6875 4.140625 -0.6875q2.46875 0 4.765625 0.9375q2.296875 0.9375 4.0 2.28125z" fill-rule="nonzero"/><path fill="#000000" fill-opacity="0.0" d="m492.13254 379.66928l0 -187.59055l37.82675 0l0 187.59055z" fill-rule="evenodd"/><path fill="#000000" d="m519.05255 369.3099l-13.359375 0l0 -1.78125l11.78125 0l0 -6.5625l1.578125 0l0 8.34375zm-11.46875 -10.250702l-1.890625 0l0 -1.640625l1.890625 0l0 1.640625zm11.46875 0l-9.671875 0l0 -1.640625l9.671875 0l0 1.640625zm0 -4.1448364l-9.671875 0l0 -1.46875l1.375 0q-1.59375 -1.0625 -1.59375 -3.078125q0 -0.875 0.3125 -1.609375q0.3125 -0.734375 0.828125 -1.09375q0.5 -0.375 1.203125 -0.515625q0.453125 -0.09375 1.59375 -0.09375l5.953125 0l0 1.640625l-5.890625 0q-1.0 0 -1.484375 0.203125q-0.5 0.1875 -0.796875 0.671875q-0.296875 0.484375 -0.296875 1.140625q0 1.046875 0.671875 1.8125q0.65625 0.75 2.515625 0.75l5.28125 0l0 1.640625zm-3.109375 -17.000702l0.203125 -1.6875q1.484375 0.40625 2.3125 1.484375q0.8125 1.078125 0.8125 2.765625q0 2.125 -1.296875 3.375q-1.3125 1.234375 -3.671875 1.234375q-2.453125 0 -3.796875 -1.25q-1.34375 -1.265625 -1.34375 -3.265625q0 -1.9375 1.328125 -3.15625q1.3125 -1.234375 3.703125 -1.234375q0.15625 0 0.4375 0l0 7.21875q1.59375 -0.09375 2.453125 -0.90625q0.84375 -0.8125 0.84375 -2.015625q0 -0.90625 -0.46875 -1.546875q-0.484375 -0.640625 -1.515625 -1.015625zm-2.65625 5.390625l0 -5.40625q-1.21875 0.109375 -1.828125 0.625q-0.953125 0.78125 -0.953125 2.03125q0 1.125 0.765625 1.90625q0.75 0.765625 2.015625 0.84375zm4.578125 -15.453857q0.765625 0.921875 1.09375 1.765625q0.3125 0.828125 0.3125 1.796875q0 1.59375 -0.78125 2.453125q-0.78125 0.859375 -1.984375 0.859375q-0.71875 0 -1.296875 -0.328125q-0.59375 -0.328125 -0.9375 -0.84375q-0.359375 -0.53125 -0.546875 -1.1875q-0.125 -0.46875 -0.25 -1.453125q-0.234375 -1.984375 -0.5625 -2.921875q-0.34375 -0.015625 -0.421875 -0.015625q-1.0 0 -1.421875 0.46875q-0.546875 0.625 -0.546875 1.875q0 1.15625 0.40625 1.703125q0.40625 0.546875 1.421875 0.8125l-0.21875 1.609375q-1.015625 -0.21875 -1.640625 -0.71875q-0.640625 -0.5 -0.984375 -1.453125q-0.34375 -0.953125 -0.34375 -2.1875q0 -1.25 0.296875 -2.015625q0.28125 -0.78125 0.734375 -1.140625q0.4375 -0.375 1.109375 -0.515625q0.421875 -0.078125 1.515625 -0.078125l2.1875 0q2.28125 0 2.890625 -0.109375q0.59375 -0.109375 1.15625 -0.40625l0 1.703125q-0.515625 0.265625 -1.1875 0.328125zm-3.671875 0.140625q0.375 0.890625 0.625 2.671875q0.140625 1.015625 0.328125 1.4375q0.1875 0.421875 0.53125 0.65625q0.34375 0.21875 0.78125 0.21875q0.65625 0 1.09375 -0.5q0.4375 -0.5 0.4375 -1.453125q0 -0.9375 -0.40625 -1.671875q-0.421875 -0.75 -1.140625 -1.09375q-0.5625 -0.265625 -1.640625 -0.265625l-0.609375 0zm4.859375 -4.188202l-9.671875 0l0 -1.46875l1.46875 0q-1.03125 -0.5625 -1.359375 -1.03125q-0.328125 -0.484375 -0.328125 -1.0625q0 -0.828125 0.53125 -1.6875l1.515625 0.5625q-0.359375 0.609375 -0.359375 1.203125q0 0.546875 0.328125 0.96875q0.328125 0.421875 0.890625 0.609375q0.875 0.28125 1.921875 0.28125l5.0625 0l0 1.625zm3.921875 -14.536621q-1.703125 1.359375 -4.0 2.296875q-2.296875 0.9375 -4.765625 0.9375q-2.15625 0 -4.140625 -0.703125q-2.3125 -0.828125 -4.59375 -2.53125l0 -1.171875q1.890625 1.09375 2.703125 1.453125q1.25 0.546875 2.625 0.875q1.703125 0.390625 3.421875 0.390625q4.375 0 8.75 -2.71875l0 1.171875zm-7.453125 -2.634552l-0.21875 -1.640625q1.40625 -0.28125 2.015625 -0.953125q0.609375 -0.6875 0.609375 -1.65625q0 -1.15625 -0.796875 -1.953125q-0.796875 -0.796875 -1.984375 -0.796875q-1.125 0 -1.859375 0.734375q-0.734375 0.734375 -0.734375 1.875q0 0.46875 0.171875 1.15625l-1.4375 -0.1875q0.015625 -0.15625 0.015625 -0.265625q0 -1.046875 -0.546875 -1.875q-0.546875 -0.84375 -1.671875 -0.84375q-0.90625 0 -1.5 0.609375q-0.59375 0.609375 -0.59375 1.578125q0 0.953125 0.609375 1.59375q0.59375 0.640625 1.796875 0.8125l-0.296875 1.640625q-1.640625 -0.296875 -2.546875 -1.359375q-0.90625 -1.0625 -0.90625 -2.65625q0 -1.09375 0.46875 -2.0q0.46875 -0.921875 1.28125 -1.40625q0.8125 -0.5 1.71875 -0.5q0.859375 0 1.578125 0.46875q0.703125 0.46875 1.125 1.375q0.28125 -1.1875 1.140625 -1.84375q0.859375 -0.65625 2.15625 -0.65625q1.734375 0 2.953125 1.28125q1.21875 1.265625 1.21875 3.21875q0 1.765625 -1.046875 2.921875q-1.046875 1.15625 -2.71875 1.328125zm0.03125 -10.375702l-0.140625 -1.71875q1.25 -0.1875 1.890625 -0.875q0.625 -0.703125 0.625 -1.6875q0 -1.1875 -0.890625 -2.0q-0.890625 -0.828125 -2.359375 -0.828125q-1.40625 0 -2.21875 0.796875q-0.8125 0.78125 -0.8125 2.0625q0 0.78125 0.359375 1.421875q0.359375 0.640625 0.9375 1.0l-0.203125 1.546875l-6.859375 -1.296875l0 -6.640625l1.5625 0l0 5.328125l3.59375 0.71875q-0.84375 -1.203125 -0.84375 -2.515625q0 -1.75 1.21875 -2.953125q1.203125 -1.203125 3.109375 -1.203125q1.8125 0 3.140625 1.046875q1.625 1.296875 1.625 3.515625q0 1.8125 -1.015625 2.96875q-1.03125 1.15625 -2.71875 1.3125zm-3.09375 -10.375732q-2.359375 0 -3.796875 -0.484375q-1.453125 -0.484375 -2.234375 -1.4375q-0.78125 -0.96875 -0.78125 -2.421875q0 -1.078125 0.4375 -1.890625q0.421875 -0.8125 1.25 -1.328125q0.8125 -0.53125 1.984375 -0.828125q1.15625 -0.3125 3.140625 -0.3125q2.359375 0 3.8125 0.484375q1.4375 0.484375 2.234375 1.453125q0.78125 0.953125 0.78125 2.421875q0 1.921875 -1.390625 3.03125q-1.671875 1.3125 -5.4375 1.3125zm0 -1.671875q3.296875 0 4.390625 -0.765625q1.078125 -0.78125 1.078125 -1.90625q0 -1.140625 -1.09375 -1.90625q-1.09375 -0.765625 -4.375 -0.765625q-3.296875 0 -4.375 0.765625q-1.078125 0.765625 -1.078125 1.921875q0 1.125 0.953125 1.796875q1.21875 0.859375 4.5 0.859375zm6.59375 -9.578827l-1.875 0l0 -1.875l1.875 0q1.03125 0 1.65625 0.375q0.640625 0.359375 0.984375 1.15625l-0.703125 0.453125q-0.21875 -0.515625 -0.671875 -0.765625q-0.4375 -0.25 -1.265625 -0.28125l0 0.9375zm-1.578125 -18.100983l1.578125 0l0 8.828125q-0.59375 0.015625 -1.140625 -0.1875q-0.90625 -0.34375 -1.78125 -1.078125q-0.875 -0.75 -2.015625 -2.15625q-1.78125 -2.171875 -2.828125 -2.9375q-1.046875 -0.765625 -1.96875 -0.765625q-0.984375 0 -1.640625 0.703125q-0.671875 0.6875 -0.671875 1.8125q0 1.1875 0.71875 1.90625q0.703125 0.703125 1.953125 0.703125l-0.171875 1.6875q-1.890625 -0.171875 -2.875 -1.296875q-0.984375 -1.140625 -0.984375 -3.03125q0 -1.921875 1.0625 -3.046875q1.0625 -1.125 2.640625 -1.125q0.796875 0 1.578125 0.328125q0.78125 0.328125 1.640625 1.09375q0.84375 0.75 2.34375 2.53125q1.234375 1.46875 1.6875 1.890625q0.4375 0.421875 0.875 0.6875l0 -6.546875zm-1.921875 -1.7663422l-0.140625 -1.71875q1.25 -0.1875 1.890625 -0.875q0.625 -0.703125 0.625 -1.6875q0 -1.1875 -0.890625 -2.0q-0.890625 -0.828125 -2.359375 -0.828125q-1.40625 0 -2.21875 0.796875q-0.8125 0.78125 -0.8125 2.0625q0 0.78125 0.359375 1.421875q0.359375 0.640625 0.9375 1.0l-0.203125 1.546875l-6.859375 -1.296875l0 -6.640625l1.5625 0l0 5.328125l3.59375 0.71875q-0.84375 -1.203125 -0.84375 -2.515625q0 -1.75 1.21875 -2.953125q1.203125 -1.203125 3.109375 -1.203125q1.8125 0 3.140625 1.046875q1.625 1.296875 1.625 3.515625q0 1.8125 -1.015625 2.96875q-1.03125 1.15625 -2.71875 1.3125zm-3.09375 -10.375717q-2.359375 0 -3.796875 -0.484375q-1.453125 -0.484375 -2.234375 -1.4375q-0.78125 -0.96875 -0.78125 -2.421875q0 -1.078125 0.4375 -1.890625q0.421875 -0.8125 1.25 -1.328125q0.8125 -0.53125 1.984375 -0.828125q1.15625 -0.3125 3.140625 -0.3125q2.359375 0 3.8125 0.484375q1.4375 0.484375 2.234375 1.453125q0.78125 0.953125 0.78125 2.421875q0 1.921875 -1.390625 3.03125q-1.671875 1.3125 -5.4375 1.3125zm0 -1.671875q3.296875 0 4.390625 -0.765625q1.078125 -0.78125 1.078125 -1.90625q0 -1.140625 -1.09375 -1.90625q-1.09375 -0.765625 -4.375 -0.765625q-3.296875 0 -4.375 0.765625q-1.078125 0.765625 -1.078125 1.921875q0 1.125 0.953125 1.796875q1.21875 0.859375 4.5 0.859375zm10.515625 -10.235092l0 1.1875q-4.375 -2.734375 -8.75 -2.734375q-1.71875 0 -3.390625 0.390625q-1.375 0.3125 -2.625 0.875q-0.828125 0.359375 -2.734375 1.46875l0 -1.1875q2.28125 -1.703125 4.59375 -2.53125q1.984375 -0.6875 4.140625 -0.6875q2.46875 0 4.765625 0.9375q2.296875 0.9375 4.0 2.28125z" fill-rule="nonzero"/><path fill="#000000" fill-opacity="0.0" d="m833.8399 345.46457l0 -153.38583l37.826782 0l0 153.38583z" fill-rule="evenodd"/><path fill="#000000" d="m860.7599 335.1052l-13.359375 0l0 -1.78125l11.78125 0l0 -6.5625l1.578125 0l0 8.34375zm-11.46875 -10.250732l-1.890625 0l0 -1.640625l1.890625 0l0 1.640625zm11.46875 0l-9.671875 0l0 -1.640625l9.671875 0l0 1.640625zm0 -4.144806l-9.671875 0l0 -1.46875l1.375 0q-1.59375 -1.0625 -1.59375 -3.078125q0 -0.875 0.3125 -1.609375q0.3125 -0.734375 0.828125 -1.09375q0.5 -0.375 1.203125 -0.515625q0.453125 -0.09375 1.59375 -0.09375l5.953125 0l0 1.640625l-5.890625 0q-1.0 0 -1.484375 0.203125q-0.5 0.1875 -0.796875 0.671875q-0.296875 0.484375 -0.296875 1.140625q0 1.046875 0.671875 1.8125q0.65625 0.75 2.515625 0.75l5.28125 0l0 1.640625zm-3.109375 -17.000732l0.203125 -1.6875q1.484375 0.40625 2.3125 1.484375q0.8125 1.078125 0.8125 2.765625q0 2.125 -1.296875 3.375q-1.3125 1.234375 -3.671875 1.234375q-2.453125 0 -3.796875 -1.25q-1.34375 -1.265625 -1.34375 -3.265625q0 -1.9375 1.328125 -3.15625q1.3125 -1.234375 3.703125 -1.234375q0.15625 0 0.4375 0l0 7.21875q1.59375 -0.09375 2.453125 -0.90625q0.84375 -0.8125 0.84375 -2.015625q0 -0.90625 -0.46875 -1.546875q-0.484375 -0.640625 -1.515625 -1.015625zm-2.65625 5.390625l0 -5.40625q-1.21875 0.109375 -1.828125 0.625q-0.953125 0.78125 -0.953125 2.03125q0 1.125 0.765625 1.90625q0.75 0.765625 2.015625 0.84375zm4.578125 -15.453827q0.765625 0.921875 1.09375 1.765625q0.3125 0.828125 0.3125 1.796875q0 1.59375 -0.78125 2.453125q-0.78125 0.859375 -1.984375 0.859375q-0.71875 0 -1.296875 -0.328125q-0.59375 -0.328125 -0.9375 -0.84375q-0.359375 -0.53125 -0.546875 -1.1875q-0.125 -0.46875 -0.25 -1.453125q-0.234375 -1.984375 -0.5625 -2.921875q-0.34375 -0.015625 -0.421875 -0.015625q-1.0 0 -1.421875 0.46875q-0.546875 0.625 -0.546875 1.875q0 1.15625 0.40625 1.703125q0.40625 0.546875 1.421875 0.8125l-0.21875 1.609375q-1.015625 -0.21875 -1.640625 -0.71875q-0.640625 -0.5 -0.984375 -1.453125q-0.34375 -0.953125 -0.34375 -2.1875q0 -1.25 0.296875 -2.015625q0.28125 -0.78125 0.734375 -1.140625q0.4375 -0.375 1.109375 -0.515625q0.421875 -0.078125 1.515625 -0.078125l2.1875 0q2.28125 0 2.890625 -0.109375q0.59375 -0.109375 1.15625 -0.40625l0 1.703125q-0.515625 0.265625 -1.1875 0.328125zm-3.671875 0.140625q0.375 0.890625 0.625 2.671875q0.140625 1.015625 0.328125 1.4375q0.1875 0.421875 0.53125 0.65625q0.34375 0.21875 0.78125 0.21875q0.65625 0 1.09375 -0.5q0.4375 -0.5 0.4375 -1.453125q0 -0.9375 -0.40625 -1.671875q-0.421875 -0.75 -1.140625 -1.09375q-0.5625 -0.265625 -1.640625 -0.265625l-0.609375 0zm4.859375 -4.1882324l-9.671875 0l0 -1.46875l1.46875 0q-1.03125 -0.5625 -1.359375 -1.03125q-0.328125 -0.484375 -0.328125 -1.0625q0 -0.828125 0.53125 -1.6875l1.515625 0.5625q-0.359375 0.609375 -0.359375 1.203125q0 0.546875 0.328125 0.96875q0.328125 0.421875 0.890625 0.609375q0.875 0.28125 1.921875 0.28125l5.0625 0l0 1.625zm3.921875 -14.536591q-1.703125 1.359375 -4.0 2.296875q-2.296875 0.9375 -4.765625 0.9375q-2.15625 0 -4.140625 -0.703125q-2.3125 -0.828125 -4.59375 -2.53125l0 -1.171875q1.890625 1.09375 2.703125 1.453125q1.25 0.546875 2.625 0.875q1.703125 0.390625 3.421875 0.390625q4.375 0 8.75 -2.71875l0 1.171875zm-3.921875 -8.806427l0 1.640625l-10.453125 0q0.5625 0.59375 1.140625 1.5625q0.5625 0.953125 0.84375 1.71875l-1.59375 0q-0.640625 -1.375 -1.5625 -2.40625q-0.921875 -1.03125 -1.78125 -1.453125l0 -1.0625l13.40625 0zm-6.59375 -4.2038574q-2.359375 0 -3.796875 -0.484375q-1.453125 -0.484375 -2.234375 -1.4375q-0.78125 -0.96875 -0.78125 -2.421875q0 -1.078125 0.4375 -1.8906097q0.421875 -0.8125 1.25 -1.328125q0.8125 -0.53125 1.984375 -0.828125q1.15625 -0.3125 3.140625 -0.3125q2.359375 0 3.8125 0.484375q1.4375 0.484375 2.234375 1.453125q0.78125 0.95310974 0.78125 2.4218597q0 1.921875 -1.390625 3.03125q-1.671875 1.3125 -5.4375 1.3125zm0 -1.671875q3.296875 0 4.390625 -0.765625q1.078125 -0.78125 1.078125 -1.90625q0 -1.140625 -1.09375 -1.9062347q-1.09375 -0.765625 -4.375 -0.765625q-3.296875 0 -4.375 0.765625q-1.078125 0.76560974 -1.078125 1.9218597q0 1.125 0.953125 1.796875q1.21875 0.859375 4.5 0.859375zm0 -8.703827q-2.359375 0 -3.796875 -0.484375q-1.453125 -0.484375 -2.234375 -1.4375q-0.78125 -0.96875 -0.78125 -2.421875q0 -1.078125 0.4375 -1.890625q0.421875 -0.8125 1.25 -1.328125q0.8125 -0.53125 1.984375 -0.828125q1.15625 -0.3125 3.140625 -0.3125q2.359375 0 3.8125 0.484375q1.4375 0.484375 2.234375 1.453125q0.78125 0.953125 0.78125 2.421875q0 1.921875 -1.390625 3.03125q-1.671875 1.3125 -5.4375 1.3125zm0 -1.671875q3.296875 0 4.390625 -0.765625q1.078125 -0.78125 1.078125 -1.90625q0 -1.140625 -1.09375 -1.90625q-1.09375 -0.765625 -4.375 -0.765625q-3.296875 0 -4.375 0.765625q-1.078125 0.765625 -1.078125 1.921875q0 1.125 0.953125 1.796875q1.21875 0.859375 4.5 0.859375zm6.59375 -9.578842l-1.875 0l0 -1.875l1.875 0q1.03125 0 1.65625 0.375q0.640625 0.359375 0.984375 1.15625l-0.703125 0.453125q-0.21875 -0.515625 -0.671875 -0.765625q-0.4375 -0.25 -1.265625 -0.28125l0 0.9375zm-3.53125 -9.491608l-0.21875 -1.640625q1.40625 -0.28125 2.015625 -0.953125q0.609375 -0.6875 0.609375 -1.65625q0 -1.15625 -0.796875 -1.953125q-0.796875 -0.796875 -1.984375 -0.796875q-1.125 0 -1.859375 0.734375q-0.734375 0.734375 -0.734375 1.875q0 0.46875 0.171875 1.15625l-1.4375 -0.1875q0.015625 -0.15625 0.015625 -0.265625q0 -1.046875 -0.546875 -1.875q-0.546875 -0.84375 -1.671875 -0.84375q-0.90625 0 -1.5 0.609375q-0.59375 0.609375 -0.59375 1.578125q0 0.953125 0.609375 1.59375q0.59375 0.640625 1.796875 0.8125l-0.296875 1.640625q-1.640625 -0.296875 -2.546875 -1.359375q-0.90625 -1.0625 -0.90625 -2.65625q0 -1.09375 0.46875 -2.0q0.46875 -0.921875 1.28125 -1.40625q0.8125 -0.5 1.71875 -0.5q0.859375 0 1.578125 0.46875q0.703125 0.46875 1.125 1.375q0.28125 -1.1875 1.140625 -1.84375q0.859375 -0.65625 2.15625 -0.65625q1.734375 0 2.953125 1.28125q1.21875 1.265625 1.21875 3.21875q0 1.765625 -1.046875 2.921875q-1.046875 1.15625 -2.71875 1.328125zm7.453125 -11.906967l0 1.1875q-4.375 -2.734375 -8.75 -2.734375q-1.71875 0 -3.390625 0.390625q-1.375 0.3125 -2.625 0.875q-0.828125 0.359375 -2.734375 1.46875l0 -1.1875q2.28125 -1.703125 4.59375 -2.53125q1.984375 -0.6875 4.140625 -0.6875q2.46875 0 4.765625 0.9375q2.296875 0.9375 4.0 2.28125z" fill-rule="nonzero"/><path fill="#000000" fill-opacity="0.0" d="m7.454068 244.68242l129.88976 0l0 87.55904l-129.88976 0z" fill-rule="evenodd"/><path fill="#000000" d="m18.188444 271.60242l0 -13.359375l1.765625 0l0 13.359375l-1.765625 0zm4.683304 0l0 -9.671875l1.46875 0l0 1.375q1.0625 -1.59375 3.078125 -1.59375q0.875 0 1.609375 0.3125q0.734375 0.3125 1.09375 0.828125q0.375 0.5 0.515625 1.203125q0.09375 0.453125 0.09375 1.59375l0 5.953125l-1.640625 0l0 -5.890625q0 -1.0 -0.203125 -1.484375q-0.1875 -0.5 -0.671875 -0.796875q-0.484375 -0.296875 -1.140625 -0.296875q-1.046875 0 -1.8125 0.671875q-0.75 0.65625 -0.75 2.515625l0 5.28125l-1.640625 0zm10.375715 3.703125l0 -13.375l1.484375 0l0 1.25q0.53125 -0.734375 1.1875 -1.09375q0.671875 -0.375 1.625 -0.375q1.234375 0 2.171875 0.640625q0.953125 0.625 1.4375 1.796875q0.484375 1.15625 0.484375 2.546875q0 1.484375 -0.53125 2.671875q-0.53125 1.1875 -1.546875 1.828125q-1.015625 0.625 -2.140625 0.625q-0.8125 0 -1.46875 -0.34375q-0.65625 -0.34375 -1.0625 -0.875l0 4.703125l-1.640625 0zm1.484375 -8.484375q0 1.859375 0.75 2.765625q0.765625 0.890625 1.828125 0.890625q1.09375 0 1.875 -0.921875q0.78125 -0.9375 0.78125 -2.875q0 -1.84375 -0.765625 -2.765625q-0.75 -0.921875 -1.8125 -0.921875q-1.046875 0 -1.859375 0.984375q-0.796875 0.96875 -0.796875 2.84375zm15.219467 4.78125l0 -1.421875q-1.125 1.640625 -3.0625 1.640625q-0.859375 0 -1.609375 -0.328125q-0.734375 -0.328125 -1.09375 -0.828125q-0.359375 -0.5 -0.5 -1.21875q-0.109375 -0.46875 -0.109375 -1.53125l0 -5.984375l1.640625 0l0 5.359375q0 1.28125 0.109375 1.734375q0.15625 0.640625 0.65625 1.015625q0.5 0.375 1.234375 0.375q0.734375 0 1.375 -0.375q0.65625 -0.390625 0.921875 -1.03125q0.265625 -0.65625 0.265625 -1.890625l0 -5.1875l1.640625 0l0 9.671875l-1.46875 0zm7.625717 -1.46875l0.234375 1.453125q-0.6875 0.140625 -1.234375 0.140625q-0.890625 0 -1.390625 -0.28125q-0.484375 -0.28125 -0.6875 -0.734375q-0.203125 -0.46875 -0.203125 -1.9375l0 -5.578125l-1.203125 0l0 -1.265625l1.203125 0l0 -2.390625l1.625 -0.984375l0 3.375l1.65625 0l0 1.265625l-1.65625 0l0 5.671875q0 0.6875 0.078125 0.890625q0.09375 0.203125 0.28125 0.328125q0.203125 0.109375 0.578125 0.109375q0.265625 0 0.71875 -0.0625zm0.94892883 -1.421875l1.625 -0.25q0.125 0.96875 0.75 1.5q0.625 0.515625 1.75 0.515625q1.125 0 1.6718788 -0.453125q0.546875 -0.46875 0.546875 -1.09375q0 -0.546875 -0.484375 -0.875q-0.328125 -0.21875 -1.6718788 -0.546875q-1.8125 -0.46875 -2.515625 -0.796875q-0.6875 -0.328125 -1.046875 -0.90625q-0.359375 -0.59375 -0.359375 -1.3125q0 -0.640625 0.296875 -1.1875q0.296875 -0.5625 0.8125 -0.921875q0.375 -0.28125 1.03125 -0.46875q0.671875 -0.203125 1.421875 -0.203125q1.140625 0 2.0000038 0.328125q0.859375 0.328125 1.265625 0.890625q0.421875 0.5625 0.578125 1.5l-1.609375 0.21875q-0.109375 -0.75 -0.6406288 -1.171875q-0.515625 -0.421875 -1.46875 -0.421875q-1.140625 0 -1.625 0.375q-0.46875 0.375 -0.46875 0.875q0 0.3125 0.1875 0.578125q0.203125 0.265625 0.640625 0.4375q0.234375 0.09375 1.4375 0.421875q1.7500038 0.453125 2.4375038 0.75q0.6875 0.296875 1.078125 0.859375q0.390625 0.5625 0.390625 1.40625q0 0.828125 -0.484375 1.546875q-0.46875 0.71875 -1.375 1.125q-0.9062538 0.390625 -2.0468788 0.390625q-1.875 0 -2.875 -0.78125q-0.984375 -0.78125 -1.25 -2.328125z" fill-rule="nonzero"/><path fill="#000000" d="m20.813444 297.5243q-1.359375 -1.703125 -2.296875 -4.0q-0.9375 -2.296875 -0.9375 -4.765625q0 -2.15625 0.703125 -4.140625q0.828125 -2.3125 2.53125 -4.59375l1.171875 0q-1.09375 1.890625 -1.453125 2.703125q-0.546875 1.25 -0.875 2.625q-0.390625 1.703125 -0.390625 3.421875q0 4.375 2.71875 8.75l-1.171875 0zm9.353302 -3.921875l0 -1.21875q-0.90625 1.4375 -2.703125 1.4375q-1.15625 0 -2.125 -0.640625q-0.96875 -0.640625 -1.5 -1.78125q-0.53125 -1.140625 -0.53125 -2.625q0 -1.453125 0.484375 -2.625q0.484375 -1.1875 1.4375 -1.8125q0.96875 -0.625 2.171875 -0.625q0.875 0 1.546875 0.375q0.6875 0.359375 1.109375 0.953125l0 -4.796875l1.640625 0l0 13.359375l-1.53125 0zm-5.171875 -4.828125q0 1.859375 0.78125 2.78125q0.78125 0.921875 1.84375 0.921875q1.078125 0 1.828125 -0.875q0.75 -0.890625 0.75 -2.6875q0 -1.984375 -0.765625 -2.90625q-0.765625 -0.9375 -1.890625 -0.9375q-1.078125 0 -1.8125 0.890625q-0.734375 0.890625 -0.734375 2.8125zm8.64134 0.8125l0 -1.640625l5.03125 0l0 1.640625l-5.03125 0zm6.197052 1.125l1.625 -0.25q0.125 0.96875 0.75 1.5q0.625 0.515625 1.75 0.515625q1.125 0 1.671875 -0.453125q0.546875 -0.46875 0.546875 -1.09375q0 -0.546875 -0.484375 -0.875q-0.328125 -0.21875 -1.671875 -0.546875q-1.8125 -0.46875 -2.515625 -0.796875q-0.6875 -0.328125 -1.046875 -0.90625q-0.359375 -0.59375 -0.359375 -1.3125q0 -0.640625 0.296875 -1.1875q0.296875 -0.5625 0.8125 -0.921875q0.375 -0.28125 1.03125 -0.46875q0.671875 -0.203125 1.421875 -0.203125q1.140625 0 2.0 0.328125q0.859375 0.328125 1.265625 0.890625q0.421875 0.5625 0.578125 1.5l-1.609375 0.21875q-0.109375 -0.75 -0.640625 -1.171875q-0.515625 -0.421875 -1.46875 -0.421875q-1.140625 0 -1.625 0.375q-0.46875 0.375 -0.46875 0.875q0 0.3125 0.1875 0.578125q0.203125 0.265625 0.640625 0.4375q0.234375 0.09375 1.4375 0.421875q1.75 0.453125 2.4375 0.75q0.6875 0.296875 1.078125 0.859375q0.390625 0.5625 0.390625 1.40625q0 0.828125 -0.484375 1.546875q-0.46875 0.71875 -1.375 1.125q-0.90625 0.390625 -2.046875 0.390625q-1.875 0 -2.875 -0.78125q-0.984375 -0.78125 -1.25 -2.328125zm9.984375 6.59375l0 -13.375l1.484375 0l0 1.25q0.53125 -0.734375 1.1875 -1.09375q0.671875 -0.375 1.625 -0.375q1.234375 0 2.171875 0.640625q0.953125 0.625 1.4375 1.796875q0.484375 1.15625 0.484375 2.546875q0 1.484375 -0.53125 2.671875q-0.53125 1.1875 -1.546875 1.828125q-1.015625 0.625 -2.140625 0.625q-0.8125 0 -1.46875 -0.34375q-0.65625 -0.34375 -1.0625 -0.875l0 4.703125l-1.640625 0zm1.484375 -8.484375q0 1.859375 0.75 2.765625q0.765625 0.890625 1.828125 0.890625q1.09375 0 1.875 -0.921875q0.78125 -0.9375 0.78125 -2.875q0 -1.84375 -0.765625 -2.765625q-0.75 -0.921875 -1.8125 -0.921875q-1.046875 0 -1.859375 0.984375q-0.796875 0.96875 -0.796875 2.84375zm15.203846 3.59375q-0.921875 0.765625 -1.765625 1.09375q-0.8281288 0.3125 -1.7968788 0.3125q-1.59375 0 -2.453125 -0.78125q-0.859375 -0.78125 -0.859375 -1.984375q0 -0.71875 0.328125 -1.296875q0.328125 -0.59375 0.84375 -0.9375q0.53125 -0.359375 1.1875 -0.546875q0.46875 -0.125 1.453125 -0.25q1.9843788 -0.234375 2.9218788 -0.5625q0.015625 -0.34375 0.015625 -0.421875q0 -1.0 -0.46875 -1.421875q-0.625 -0.546875 -1.875 -0.546875q-1.1562538 0 -1.7031288 0.40625q-0.546875 0.40625 -0.8125 1.421875l-1.609375 -0.21875q0.21875 -1.015625 0.71875 -1.640625q0.5 -0.640625 1.453125 -0.984375q0.953125 -0.34375 2.1875038 -0.34375q1.25 0 2.015625 0.296875q0.78125 0.28125 1.140625 0.734375q0.375 0.4375 0.515625 1.109375q0.078125 0.421875 0.078125 1.515625l0 2.1875q0 2.28125 0.109375 2.890625q0.109375 0.59375 0.40625 1.15625l-1.703125 0q-0.265625 -0.515625 -0.328125 -1.1875zm-0.140625 -3.671875q-0.890625 0.375 -2.6718788 0.625q-1.015625 0.140625 -1.4375 0.328125q-0.421875 0.1875 -0.65625 0.53125q-0.21875 0.34375 -0.21875 0.78125q0 0.65625 0.5 1.09375q0.5 0.4375 1.453125 0.4375q0.9375038 0 1.6718788 -0.40625q0.75 -0.421875 1.09375 -1.140625q0.265625 -0.5625 0.265625 -1.640625l0 -0.609375zm10.516342 1.3125l1.609375 0.21875q-0.265625 1.65625 -1.359375 2.609375q-1.078125 0.9375 -2.671875 0.9375q-1.984375 0 -3.1875 -1.296875q-1.203125 -1.296875 -1.203125 -3.71875q0 -1.578125 0.515625 -2.75q0.515625 -1.171875 1.578125 -1.75q1.0625 -0.59375 2.3125 -0.59375q1.578125 0 2.578125 0.796875q1.0 0.796875 1.28125 2.265625l-1.59375 0.234375q-0.234375 -0.96875 -0.8125 -1.453125q-0.578125 -0.5 -1.390625 -0.5q-1.234375 0 -2.015625 0.890625q-0.78125 0.890625 -0.78125 2.8125q0 1.953125 0.75 2.84375q0.75 0.875 1.953125 0.875q0.96875 0 1.609375 -0.59375q0.65625 -0.59375 0.828125 -1.828125zm3.015625 -7.921875l0 -1.890625l1.640625 0l0 1.890625l-1.640625 0zm0 11.46875l0 -9.671875l1.640625 0l0 9.671875l-1.640625 0zm4.144821 0l0 -9.671875l1.46875 0l0 1.375q1.0625 -1.59375 3.078125 -1.59375q0.875 0 1.609375 0.3125q0.734375 0.3125 1.09375 0.828125q0.375 0.5 0.515625 1.203125q0.09375 0.453125 0.09375 1.59375l0 5.953125l-1.640625 0l0 -5.890625q0 -1.0 -0.203125 -1.484375q-0.1875 -0.5 -0.671875 -0.796875q-0.484375 -0.296875 -1.140625 -0.296875q-1.046875 0 -1.8125 0.671875q-0.75 0.65625 -0.75 2.515625l0 5.28125l-1.640625 0zm10.063217 0.796875l1.59375 0.234375q0.109375 0.75 0.5625 1.078125q0.609375 0.453125 1.671875 0.453125q1.140625 0 1.75 -0.453125q0.625 -0.453125 0.84375 -1.265625q0.125 -0.5 0.109375 -2.109375q-1.0625 1.265625 -2.671875 1.265625q-2.0 0 -3.09375 -1.4375q-1.09375 -1.4375 -1.09375 -3.453125q0 -1.390625 0.5 -2.5625q0.515625 -1.171875 1.453125 -1.796875q0.953125 -0.640625 2.25 -0.640625q1.703125 0 2.8125 1.375l0 -1.15625l1.515625 0l0 8.359375q0 2.265625 -0.46875 3.203125q-0.453125 0.9375 -1.453125 1.484375q-0.984375 0.546875 -2.453125 0.546875q-1.71875 0 -2.796875 -0.78125q-1.0625 -0.765625 -1.03125 -2.34375zm1.359375 -5.8125q0 1.90625 0.75 2.78125q0.765625 0.875 1.90625 0.875q1.125 0 1.890625 -0.859375q0.765625 -0.875 0.765625 -2.734375q0 -1.78125 -0.796875 -2.671875q-0.78125 -0.90625 -1.890625 -0.90625q-1.09375 0 -1.859375 0.890625q-0.765625 0.875 -0.765625 2.625zm8.672592 2.125l1.625 -0.25q0.125 0.96875 0.75 1.5q0.625 0.515625 1.75 0.515625q1.125 0 1.671875 -0.453125q0.546875 -0.46875 0.546875 -1.09375q0 -0.546875 -0.484375 -0.875q-0.328125 -0.21875 -1.671875 -0.546875q-1.8125 -0.46875 -2.515625 -0.796875q-0.6875 -0.328125 -1.046875 -0.90625q-0.359375 -0.59375 -0.359375 -1.3125q0 -0.640625 0.296875 -1.1875q0.296875 -0.5625 0.8125 -0.921875q0.375 -0.28125 1.03125 -0.46875q0.671875 -0.203125 1.421875 -0.203125q1.140625 0 2.0 0.328125q0.859375 0.328125 1.265625 0.890625q0.421875 0.5625 0.578125 1.5l-1.609375 0.21875q-0.109375 -0.75 -0.640625 -1.171875q-0.515625 -0.421875 -1.46875 -0.421875q-1.140625 0 -1.625 0.375q-0.46875 0.375 -0.46875 0.875q0 0.3125 0.1875 0.578125q0.203125 0.265625 0.640625 0.4375q0.234375 0.09375 1.4375 0.421875q1.75 0.453125 2.4375 0.75q0.6875 0.296875 1.078125 0.859375q0.390625 0.5625 0.390625 1.40625q0 0.828125 -0.484375 1.546875q-0.46875 0.71875 -1.375 1.125q-0.90625 0.390625 -2.046875 0.390625q-1.875 0 -2.875 -0.78125q-0.984375 -0.78125 -1.25 -2.328125z" fill-rule="nonzero"/><path fill="#000000" fill-opacity="0.0" d="m242.97507 287.43307l28.251953 0" fill-rule="evenodd"/><path stroke="#000000" stroke-width="1.0" stroke-linejoin="round" stroke-linecap="butt" d="m242.97507 287.43307l22.251953 0" fill-rule="evenodd"/><path fill="#000000" stroke="#000000" stroke-width="1.0" stroke-linecap="butt" d="m265.22702 289.0848l4.5381165 -1.6517334l-4.5381165 -1.6517334z" fill-rule="evenodd"/><path fill="#000000" fill-opacity="0.0" d="m411.34778 287.43307l31.02362 0" fill-rule="evenodd"/><path stroke="#000000" stroke-width="1.0" stroke-linejoin="round" stroke-linecap="butt" d="m411.34778 287.43307l25.02362 0" fill-rule="evenodd"/><path fill="#000000" stroke="#000000" stroke-width="1.0" stroke-linecap="butt" d="m436.3714 289.0848l4.538086 -1.6517334l-4.538086 -1.6517334z" fill-rule="evenodd"/><path fill="#000000" fill-opacity="0.0" d="m586.88055 287.43307l23.874023 0" fill-rule="evenodd"/><path stroke="#000000" stroke-width="1.0" stroke-linejoin="round" stroke-linecap="butt" d="m586.88055 287.43307l17.874023 0" fill-rule="evenodd"/><path fill="#000000" stroke="#000000" stroke-width="1.0" stroke-linecap="butt" d="m604.7546 289.0848l4.538086 -1.6517334l-4.538086 -1.6517334z" fill-rule="evenodd"/><path fill="#000000" fill-opacity="0.0" d="m190.1588 287.43307l21.102356 0" fill-rule="evenodd"/><path stroke="#000000" stroke-width="1.0" stroke-linejoin="round" stroke-linecap="butt" d="m190.1588 287.43307l15.102356 0" fill-rule="evenodd"/><path fill="#000000" stroke="#000000" stroke-width="1.0" stroke-linecap="butt" d="m205.26115 289.0848l4.538101 -1.6517334l-4.538101 -1.6517334z" fill-rule="evenodd"/><path fill="#000000" fill-opacity="0.0" d="m302.95145 287.43307l23.874023 0" fill-rule="evenodd"/><path stroke="#000000" stroke-width="1.0" stroke-linejoin="round" stroke-linecap="butt" d="m302.95145 287.43307l17.874023 0" fill-rule="evenodd"/><path fill="#000000" stroke="#000000" stroke-width="1.0" stroke-linecap="butt" d="m320.82547 289.0848l4.538086 -1.6517334l-4.538086 -1.6517334z" fill-rule="evenodd"/><path fill="#000000" fill-opacity="0.0" d="m358.5315 287.43307l21.102356 0" fill-rule="evenodd"/><path stroke="#000000" stroke-width="1.0" stroke-linejoin="round" stroke-linecap="butt" d="m358.5315 287.43307l15.102356 0" fill-rule="evenodd"/><path fill="#000000" stroke="#000000" stroke-width="1.0" stroke-linecap="butt" d="m373.63385 289.0848l4.5381165 -1.6517334l-4.5381165 -1.6517334z" fill-rule="evenodd"/><path fill="#000000" fill-opacity="0.0" d="m474.08792 287.43307l21.102356 0" fill-rule="evenodd"/><path stroke="#000000" stroke-width="1.0" stroke-linejoin="round" stroke-linecap="butt" d="m474.08792 287.43307l15.102356 0" fill-rule="evenodd"/><path fill="#000000" stroke="#000000" stroke-width="1.0" stroke-linecap="butt" d="m489.19028 289.0848l4.5381165 -1.6517334l-4.5381165 -1.6517334z" fill-rule="evenodd"/><path fill="#000000" fill-opacity="0.0" d="m526.9042 287.43307l28.252014 0" fill-rule="evenodd"/><path stroke="#000000" stroke-width="1.0" stroke-linejoin="round" stroke-linecap="butt" d="m526.9042 287.43307l22.252014 0" fill-rule="evenodd"/><path fill="#000000" stroke="#000000" stroke-width="1.0" stroke-linecap="butt" d="m549.1562 289.0848l4.538086 -1.6517334l-4.538086 -1.6517334z" fill-rule="evenodd"/><path fill="#000000" fill-opacity="0.0" d="m642.46063 287.43307l21.102356 0" fill-rule="evenodd"/><path stroke="#000000" stroke-width="1.0" stroke-linejoin="round" stroke-linecap="butt" d="m642.46063 287.43307l15.102356 0" fill-rule="evenodd"/><path fill="#000000" stroke="#000000" stroke-width="1.0" stroke-linecap="butt" d="m657.563 289.0848l4.538086 -1.6517334l-4.538086 -1.6517334z" fill-rule="evenodd"/><path fill="#000000" fill-opacity="0.0" d="m695.2769 287.43307l31.02362 0" fill-rule="evenodd"/><path stroke="#000000" stroke-width="1.0" stroke-linejoin="round" stroke-linecap="butt" d="m695.2769 287.43307l25.02362 0" fill-rule="evenodd"/><path fill="#000000" stroke="#000000" stroke-width="1.0" stroke-linecap="butt" d="m720.30054 289.0848l4.538086 -1.6517334l-4.538086 -1.6517334z" fill-rule="evenodd"/><path fill="#000000" fill-opacity="0.0" d="m758.0171 287.43307l21.102356 0" fill-rule="evenodd"/><path stroke="#000000" stroke-width="1.0" stroke-linejoin="round" stroke-linecap="butt" d="m758.0171 287.43307l15.102356 0" fill-rule="evenodd"/><path fill="#000000" stroke="#000000" stroke-width="1.0" stroke-linecap="butt" d="m773.11945 289.0848l4.538086 -1.6517334l-4.538086 -1.6517334z" fill-rule="evenodd"/><path fill="#000000" fill-opacity="0.0" d="m810.8333 287.43307l28.252014 0" fill-rule="evenodd"/><path stroke="#000000" stroke-width="1.0" stroke-linejoin="round" stroke-linecap="butt" d="m810.8333 287.43307l22.252014 0" fill-rule="evenodd"/><path fill="#000000" stroke="#000000" stroke-width="1.0" stroke-linecap="butt" d="m833.0853 289.0848l4.538086 -1.6517334l-4.538086 -1.6517334z" fill-rule="evenodd"/><path fill="#000000" fill-opacity="0.0" d="m899.07086 253.07086l589.03937 0l0 68.72443l-589.03937 0z" fill-rule="evenodd"/><path fill="#000000" d="m915.61774 278.80338q-0.921875 0.765625 -1.765625 1.09375q-0.828125 0.3125 -1.796875 0.3125q-1.59375 0 -2.453125 -0.78125q-0.859375 -0.78125 -0.859375 -1.984375q0 -0.71875 0.328125 -1.296875q0.328125 -0.59375 0.84375 -0.9375q0.53125 -0.359375 1.1875 -0.546875q0.46875 -0.125 1.453125 -0.25q1.984375 -0.234375 2.921875 -0.5625q0.015625 -0.34375 0.015625 -0.421875q0 -1.0 -0.46875 -1.421875q-0.625 -0.546875 -1.875 -0.546875q-1.15625 0 -1.703125 0.40625q-0.546875 0.40625 -0.8125 1.421875l-1.609375 -0.21875q0.21875 -1.015625 0.71875 -1.640625q0.5 -0.640625 1.453125 -0.984375q0.953125 -0.34375 2.1875 -0.34375q1.25 0 2.015625 0.296875q0.78125 0.28125 1.140625 0.734375q0.375 0.4375 0.515625 1.109375q0.078125 0.421875 0.078125 1.515625l0 2.1875q0 2.28125 0.109375 2.890625q0.109375 0.59375 0.40625 1.15625l-1.703125 0q-0.265625 -0.515625 -0.328125 -1.1875zm-0.140625 -3.671875q-0.890625 0.375 -2.671875 0.625q-1.015625 0.140625 -1.4375 0.328125q-0.421875 0.1875 -0.65625 0.53125q-0.21875 0.34375 -0.21875 0.78125q0 0.65625 0.5 1.09375q0.5 0.4375 1.453125 0.4375q0.9375 0 1.671875 -0.40625q0.75 -0.421875 1.09375 -1.140625q0.265625 -0.5625 0.265625 -1.640625l0 -0.609375z" fill-rule="nonzero"/><path fill="#000000" d="m910.80524 301.99088l-1.515625 0l0 -13.359375l1.640625 0l0 4.765625q1.046875 -1.296875 2.65625 -1.296875q0.890625 0 1.6875 0.359375q0.796875 0.359375 1.3125 1.015625q0.515625 0.640625 0.796875 1.5625q0.296875 0.921875 0.296875 1.96875q0 2.484375 -1.234375 3.84375q-1.21875 1.359375 -2.953125 1.359375q-1.703125 0 -2.6875 -1.4375l0 1.21875zm-0.015625 -4.90625q0 1.734375 0.484375 2.515625q0.765625 1.265625 2.09375 1.265625q1.078125 0 1.859375 -0.9375q0.78125 -0.9375 0.78125 -2.78125q0 -1.890625 -0.75 -2.796875q-0.75 -0.90625 -1.828125 -0.90625q-1.0625 0 -1.859375 0.9375q-0.78125 0.9375 -0.78125 2.703125z" fill-rule="nonzero"/><path fill="#000000" d="m908.99274 324.78775l1.59375 0.234375q0.109375 0.75 0.5625 1.078125q0.609375 0.453125 1.671875 0.453125q1.140625 0 1.75 -0.453125q0.625 -0.453125 0.84375 -1.265625q0.125 -0.5 0.109375 -2.109375q-1.0625 1.265625 -2.671875 1.265625q-2.0 0 -3.09375 -1.4375q-1.09375 -1.4375 -1.09375 -3.453125q0 -1.390625 0.5 -2.5625q0.515625 -1.171875 1.453125 -1.796875q0.953125 -0.640625 2.25 -0.640625q1.703125 0 2.8125 1.375l0 -1.15625l1.515625 0l0 8.359375q0 2.265625 -0.46875 3.203125q-0.453125 0.9375 -1.453125 1.484375q-0.984375 0.546875 -2.453125 0.546875q-1.71875 0 -2.796875 -0.78125q-1.0625 -0.765625 -1.03125 -2.34375zm1.359375 -5.8125q0 1.90625 0.75 2.78125q0.765625 0.875 1.90625 0.875q1.125 0 1.890625 -0.859375q0.765625 -0.875 0.765625 -2.734375q0 -1.78125 -0.796875 -2.671875q-0.78125 -0.90625 -1.890625 -0.90625q-1.09375 0 -1.859375 0.890625q-0.765625 0.875 -0.765625 2.625zm15.641357 3.828125q-0.921875 0.765625 -1.765625 1.09375q-0.828125 0.3125 -1.796875 0.3125q-1.59375 0 -2.453125 -0.78125q-0.859375 -0.78125 -0.859375 -1.984375q0 -0.71875 0.328125 -1.296875q0.328125 -0.59375 0.84375 -0.9375q0.53125 -0.359375 1.1875 -0.546875q0.46875 -0.125 1.453125 -0.25q1.984375 -0.234375 2.921875 -0.5625q0.015625 -0.34375 0.015625 -0.421875q0 -1.0 -0.46875 -1.421875q-0.625 -0.546875 -1.875 -0.546875q-1.15625 0 -1.703125 0.40625q-0.546875 0.40625 -0.8125 1.421875l-1.609375 -0.21875q0.21875 -1.015625 0.71875 -1.640625q0.5 -0.640625 1.453125 -0.984375q0.953125 -0.34375 2.1875 -0.34375q1.25 0 2.015625 0.296875q0.78125 0.28125 1.140625 0.734375q0.375 0.4375 0.515625 1.109375q0.078125 0.421875 0.078125 1.515625l0 2.1875q0 2.28125 0.109375 2.890625q0.109375 0.59375 0.40625 1.15625l-1.703125 0q-0.265625 -0.515625 -0.328125 -1.1875zm-0.140625 -3.671875q-0.890625 0.375 -2.671875 0.625q-1.015625 0.140625 -1.4375 0.328125q-0.421875 0.1875 -0.65625 0.53125q-0.21875 0.34375 -0.21875 0.78125q0 0.65625 0.5 1.09375q0.5 0.4375 1.453125 0.4375q0.9375 0 1.671875 -0.40625q0.75 -0.421875 1.09375 -1.140625q0.265625 -0.5625 0.265625 -1.640625l0 -0.609375zm4.2038574 4.859375l0 -9.671875l1.46875 0l0 1.359375q0.453125 -0.71875 1.203125 -1.140625q0.765625 -0.4375 1.71875 -0.4375q1.078125 0 1.765625 0.453125q0.6875 0.4375 0.96875 1.234375q1.15625 -1.6875 2.984375 -1.6875q1.453125 0 2.21875 0.796875q0.78125 0.796875 0.78125 2.453125l0 6.640625l-1.640625 0l0 -6.09375q0 -0.984375 -0.15625 -1.40625q-0.15625 -0.4375 -0.578125 -0.703125q-0.421875 -0.265625 -0.984375 -0.265625q-1.015625 0 -1.6875 0.6875q-0.671875 0.671875 -0.671875 2.15625l0 5.625l-1.640625 0l0 -6.28125q0 -1.09375 -0.40625 -1.640625q-0.40625 -0.546875 -1.3125 -0.546875q-0.6875 0 -1.28125 0.359375q-0.59375 0.359375 -0.859375 1.0625q-0.25 0.703125 -0.25 2.03125l0 5.015625l-1.640625 0zm15.5407715 0l0 -9.671875l1.46875 0l0 1.359375q0.453125 -0.71875 1.203125 -1.140625q0.765625 -0.4375 1.71875 -0.4375q1.078125 0 1.765625 0.453125q0.6875 0.4375 0.96875 1.234375q1.15625 -1.6875 2.984375 -1.6875q1.453125 0 2.21875 0.796875q0.78125 0.796875 0.78125 2.453125l0 6.640625l-1.640625 0l0 -6.09375q0 -0.984375 -0.15625 -1.40625q-0.15625 -0.4375 -0.578125 -0.703125q-0.421875 -0.265625 -0.984375 -0.265625q-1.015625 0 -1.6875 0.6875q-0.671875 0.671875 -0.671875 2.15625l0 5.625l-1.640625 0l0 -6.28125q0 -1.09375 -0.40625 -1.640625q-0.40625 -0.546875 -1.3125 -0.546875q-0.6875 0 -1.28125 0.359375q-0.59375 0.359375 -0.859375 1.0625q-0.25 0.703125 -0.25 2.03125l0 5.015625l-1.640625 0zm21.853333 -1.1875q-0.921875 0.765625 -1.765625 1.09375q-0.828125 0.3125 -1.796875 0.3125q-1.59375 0 -2.453125 -0.78125q-0.859375 -0.78125 -0.859375 -1.984375q0 -0.71875 0.328125 -1.296875q0.328125 -0.59375 0.84375 -0.9375q0.53125 -0.359375 1.1875 -0.546875q0.46875 -0.125 1.453125 -0.25q1.984375 -0.234375 2.921875 -0.5625q0.015625 -0.34375 0.015625 -0.421875q0 -1.0 -0.46875 -1.421875q-0.625 -0.546875 -1.875 -0.546875q-1.15625 0 -1.703125 0.40625q-0.546875 0.40625 -0.8125 1.421875l-1.609375 -0.21875q0.21875 -1.015625 0.71875 -1.640625q0.5 -0.640625 1.453125 -0.984375q0.953125 -0.34375 2.1875 -0.34375q1.25 0 2.015625 0.296875q0.78125 0.28125 1.140625 0.734375q0.375 0.4375 0.515625 1.109375q0.078125 0.421875 0.078125 1.515625l0 2.1875q0 2.28125 0.109375 2.890625q0.109375 0.59375 0.40625 1.15625l-1.703125 0q-0.265625 -0.515625 -0.328125 -1.1875zm-0.140625 -3.671875q-0.890625 0.375 -2.671875 0.625q-1.015625 0.140625 -1.4375 0.328125q-0.421875 0.1875 -0.65625 0.53125q-0.21875 0.34375 -0.21875 0.78125q0 0.65625 0.5 1.09375q0.5 0.4375 1.453125 0.4375q0.9375 0 1.671875 -0.40625q0.75 -0.421875 1.09375 -1.140625q0.265625 -0.5625 0.265625 -1.640625l0 -0.609375z" fill-rule="nonzero"/><path fill="#000000" fill-opacity="0.0" d="m870.8097 287.43307l28.252014 0" fill-rule="evenodd"/><path stroke="#000000" stroke-width="1.0" stroke-linejoin="round" stroke-linecap="butt" d="m870.8097 287.43307l22.252014 0" fill-rule="evenodd"/><path fill="#000000" stroke="#000000" stroke-width="1.0" stroke-linecap="butt" d="m893.0617 289.0848l4.538086 -1.6517334l-4.538086 -1.6517334z" fill-rule="evenodd"/><path fill="#000000" fill-opacity="0.0" d="m137.34383 288.46194l21.102371 -1.0393677" fill-rule="evenodd"/><path stroke="#000000" stroke-width="1.0" stroke-linejoin="round" stroke-linecap="butt" d="m137.34383 288.46194l15.109634 -0.74420166" fill-rule="evenodd"/><path fill="#000000" stroke="#000000" stroke-width="1.0" stroke-linecap="butt" d="m152.53471 289.36746l4.451355 -1.8729858l-4.613861 -1.4264832z" fill-rule="evenodd"/><path fill="#cfe2f3" d="m159.55118 501.15222l21.102371 0l0 21.102356l-21.102371 0z" fill-rule="evenodd"/><path stroke="#000000" stroke-width="1.0" stroke-linejoin="round" stroke-linecap="butt" d="m159.55118 501.15222l21.102371 0l0 21.102356l-21.102371 0z" fill-rule="evenodd"/><path fill="#4a86e8" d="m159.55118 543.7402l21.102371 0l0 21.102356l-21.102371 0z" fill-rule="evenodd"/><path stroke="#000000" stroke-width="1.0" stroke-linejoin="round" stroke-linecap="butt" d="m159.55118 543.7402l21.102371 0l0 21.102356l-21.102371 0z" fill-rule="evenodd"/><path fill="#b4a7d6" d="m159.55118 586.32806l21.102371 0l0 21.102356l-21.102371 0z" fill-rule="evenodd"/><path stroke="#000000" stroke-width="1.0" stroke-linejoin="round" stroke-linecap="butt" d="m159.55118 586.32806l21.102371 0l0 21.102356l-21.102371 0z" fill-rule="evenodd"/><path fill="#000000" fill-opacity="0.0" d="m190.12073 489.90552l589.03937 0l0 32.346436l-589.03937 0z" fill-rule="evenodd"/><path fill="#000000" d="m200.4801 516.8255l0 -13.359375l1.78125 0l0 11.78125l6.5625 0l0 1.578125l-8.34375 0zm10.250717 -11.46875l0 -1.890625l1.640625 0l0 1.890625l-1.640625 0zm0 11.46875l0 -9.671875l1.640625 0l0 9.671875l-1.640625 0zm4.144821 0l0 -9.671875l1.46875 0l0 1.375q1.0625 -1.59375 3.078125 -1.59375q0.875 0 1.609375 0.3125q0.734375 0.3125 1.09375 0.828125q0.375 0.5 0.515625 1.203125q0.09375 0.453125 0.09375 1.59375l0 5.953125l-1.640625 0l0 -5.890625q0 -1.0 -0.203125 -1.484375q-0.1875 -0.5 -0.671875 -0.796875q-0.484375 -0.296875 -1.140625 -0.296875q-1.046875 0 -1.8125 0.671875q-0.75 0.65625 -0.75 2.515625l0 5.28125l-1.640625 0zm17.000717 -3.109375l1.6875 0.203125q-0.40625 1.484375 -1.484375 2.3125q-1.078125 0.8125 -2.765625 0.8125q-2.125 0 -3.375 -1.296875q-1.234375 -1.3125 -1.234375 -3.671875q0 -2.453125 1.25 -3.796875q1.265625 -1.34375 3.265625 -1.34375q1.9375 0 3.15625 1.328125q1.234375 1.3125 1.234375 3.703125q0 0.15625 0 0.4375l-7.21875 0q0.09375 1.59375 0.90625 2.453125q0.8125 0.84375 2.015625 0.84375q0.90625 0 1.546875 -0.46875q0.640625 -0.484375 1.015625 -1.515625zm-5.390625 -2.65625l5.40625 0q-0.109375 -1.21875 -0.625 -1.828125q-0.78125 -0.953125 -2.03125 -0.953125q-1.125 0 -1.90625 0.765625q-0.765625 0.75 -0.84375 2.015625zm15.453842 4.578125q-0.921875 0.765625 -1.765625 1.09375q-0.828125 0.3125 -1.796875 0.3125q-1.59375 0 -2.453125 -0.78125q-0.859375 -0.78125 -0.859375 -1.984375q0 -0.71875 0.328125 -1.296875q0.328125 -0.59375 0.84375 -0.9375q0.53125 -0.359375 1.1875 -0.546875q0.46875 -0.125 1.453125 -0.25q1.984375 -0.234375 2.921875 -0.5625q0.015625 -0.34375 0.015625 -0.421875q0 -1.0 -0.46875 -1.421875q-0.625 -0.546875 -1.875 -0.546875q-1.15625 0 -1.703125 0.40625q-0.546875 0.40625 -0.8125 1.421875l-1.609375 -0.21875q0.21875 -1.015625 0.71875 -1.640625q0.5 -0.640625 1.453125 -0.984375q0.953125 -0.34375 2.1875 -0.34375q1.25 0 2.015625 0.296875q0.78125 0.28125 1.140625 0.734375q0.375 0.4375 0.515625 1.109375q0.078125 0.421875 0.078125 1.515625l0 2.1875q0 2.28125 0.109375 2.890625q0.109375 0.59375 0.40625 1.15625l-1.703125 0q-0.265625 -0.515625 -0.328125 -1.1875zm-0.140625 -3.671875q-0.890625 0.375 -2.671875 0.625q-1.015625 0.140625 -1.4375 0.328125q-0.421875 0.1875 -0.65625 0.53125q-0.21875 0.34375 -0.21875 0.78125q0 0.65625 0.5 1.09375q0.5 0.4375 1.453125 0.4375q0.9375 0 1.671875 -0.40625q0.75 -0.421875 1.09375 -1.140625q0.265625 -0.5625 0.265625 -1.640625l0 -0.609375zm4.188217 4.859375l0 -9.671875l1.46875 0l0 1.46875q0.5625 -1.03125 1.03125 -1.359375q0.484375 -0.328125 1.0625 -0.328125q0.828125 0 1.6875 0.53125l-0.5625 1.515625q-0.609375 -0.359375 -1.203125 -0.359375q-0.546875 0 -0.96875 0.328125q-0.421875 0.328125 -0.609375 0.890625q-0.28125 0.875 -0.28125 1.921875l0 5.0625l-1.625 0zm11.364731 0l0 -13.359375l1.640625 0l0 13.359375l-1.640625 0zm10.504211 -1.1875q-0.921875 0.765625 -1.765625 1.09375q-0.828125 0.3125 -1.796875 0.3125q-1.59375 0 -2.453125 -0.78125q-0.859375 -0.78125 -0.859375 -1.984375q0 -0.71875 0.328125 -1.296875q0.328125 -0.59375 0.84375 -0.9375q0.53125 -0.359375 1.1875 -0.546875q0.46875 -0.125 1.453125 -0.25q1.984375 -0.234375 2.921875 -0.5625q0.015625 -0.34375 0.015625 -0.421875q0 -1.0 -0.46875 -1.421875q-0.625 -0.546875 -1.875 -0.546875q-1.15625 0 -1.703125 0.40625q-0.546875 0.40625 -0.8125 1.421875l-1.609375 -0.21875q0.21875 -1.015625 0.71875 -1.640625q0.5 -0.640625 1.453125 -0.984375q0.953125 -0.34375 2.1875 -0.34375q1.25 0 2.015625 0.296875q0.78125 0.28125 1.140625 0.734375q0.375 0.4375 0.515625 1.109375q0.078125 0.421875 0.078125 1.515625l0 2.1875q0 2.28125 0.109375 2.890625q0.109375 0.59375 0.40625 1.15625l-1.703125 0q-0.265625 -0.515625 -0.328125 -1.1875zm-0.140625 -3.671875q-0.890625 0.375 -2.671875 0.625q-1.015625 0.140625 -1.4375 0.328125q-0.421875 0.1875 -0.65625 0.53125q-0.21875 0.34375 -0.21875 0.78125q0 0.65625 0.5 1.09375q0.5 0.4375 1.453125 0.4375q0.9375 0 1.671875 -0.40625q0.75 -0.421875 1.09375 -1.140625q0.265625 -0.5625 0.265625 -1.640625l0 -0.609375zm4.125702 8.578125l-0.1875 -1.53125q0.546875 0.140625 0.9375 0.140625q0.546875 0 0.875 -0.1875q0.328125 -0.171875 0.546875 -0.5q0.15625 -0.25 0.5 -1.21875q0.046875 -0.140625 0.140625 -0.40625l-3.671875 -9.6875l1.765625 0l2.015625 5.59375q0.390625 1.078125 0.703125 2.25q0.28125 -1.125 0.671875 -2.203125l2.078125 -5.640625l1.640625 0l-3.6875 9.828125q-0.59375 1.609375 -0.921875 2.203125q-0.4375 0.8125 -1.0 1.1875q-0.5625 0.375 -1.34375 0.375q-0.484375 0 -1.0625 -0.203125zm16.03125 -6.828125l1.6875 0.203125q-0.40625 1.484375 -1.484375 2.3125q-1.078125 0.8125 -2.765625 0.8125q-2.125 0 -3.375 -1.296875q-1.234375 -1.3125 -1.234375 -3.671875q0 -2.453125 1.25 -3.796875q1.265625 -1.34375 3.265625 -1.34375q1.9375 0 3.15625 1.328125q1.234375 1.3125 1.234375 3.703125q0 0.15625 0 0.4375l-7.21875 0q0.09375 1.59375 0.90625 2.453125q0.8125 0.84375 2.015625 0.84375q0.90625 0 1.546875 -0.46875q0.640625 -0.484375 1.015625 -1.515625zm-5.390625 -2.65625l5.40625 0q-0.109375 -1.21875 -0.625 -1.828125q-0.78125 -0.953125 -2.03125 -0.953125q-1.125 0 -1.90625 0.765625q-0.765625 0.75 -0.84375 2.015625zm9.125732 5.765625l0 -9.671875l1.46875 0l0 1.46875q0.5625 -1.03125 1.03125 -1.359375q0.484375 -0.328125 1.0625 -0.328125q0.828125 0 1.6875 0.53125l-0.5625 1.515625q-0.609375 -0.359375 -1.203125 -0.359375q-0.546875 0 -0.96875 0.328125q-0.421875 0.328125 -0.609375 0.890625q-0.28125 0.875 -0.28125 1.921875l0 5.0625l-1.625 0z" fill-rule="nonzero"/><path fill="#000000" fill-opacity="0.0" d="m190.12073 531.83203l464.12598 0l0 21.102356l-464.12598 0z" fill-rule="evenodd"/><path fill="#000000" d="m200.4801 558.752l0 -13.359375l5.015625 0q1.53125 0 2.453125 0.40625q0.921875 0.40625 1.4375 1.25q0.53125 0.84375 0.53125 1.765625q0 0.859375 -0.46875 1.625q-0.453125 0.75 -1.390625 1.203125q1.203125 0.359375 1.859375 1.21875q0.65625 0.859375 0.65625 2.015625q0 0.9375 -0.40625 1.75q-0.390625 0.796875 -0.984375 1.234375q-0.578125 0.4375 -1.453125 0.671875q-0.875 0.21875 -2.15625 0.21875l-5.09375 0zm1.78125 -7.75l2.875 0q1.1875 0 1.6875 -0.140625q0.671875 -0.203125 1.015625 -0.671875q0.34375 -0.46875 0.34375 -1.171875q0 -0.65625 -0.328125 -1.15625q-0.3125 -0.515625 -0.90625 -0.703125q-0.59375 -0.1875 -2.03125 -0.1875l-2.65625 0l0 4.03125zm0 6.171875l3.3125 0q0.859375 0 1.203125 -0.0625q0.609375 -0.109375 1.015625 -0.359375q0.421875 -0.265625 0.6875 -0.75q0.265625 -0.484375 0.265625 -1.125q0 -0.75 -0.390625 -1.296875q-0.375 -0.546875 -1.0625 -0.765625q-0.671875 -0.234375 -1.953125 -0.234375l-3.078125 0l0 4.59375zm16.849823 0.390625q-0.921875 0.765625 -1.765625 1.09375q-0.828125 0.3125 -1.796875 0.3125q-1.59375 0 -2.453125 -0.78125q-0.859375 -0.78125 -0.859375 -1.984375q0 -0.71875 0.328125 -1.296875q0.328125 -0.59375 0.84375 -0.9375q0.53125 -0.359375 1.1875 -0.546875q0.46875 -0.125 1.453125 -0.25q1.984375 -0.234375 2.921875 -0.5625q0.015625 -0.34375 0.015625 -0.421875q0 -1.0 -0.46875 -1.421875q-0.625 -0.546875 -1.875 -0.546875q-1.15625 0 -1.703125 0.40625q-0.546875 0.40625 -0.8125 1.421875l-1.609375 -0.21875q0.21875 -1.015625 0.71875 -1.640625q0.5 -0.640625 1.453125 -0.984375q0.953125 -0.34375 2.1875 -0.34375q1.25 0 2.015625 0.296875q0.78125 0.28125 1.140625 0.734375q0.375 0.4375 0.515625 1.109375q0.078125 0.421875 0.078125 1.515625l0 2.1875q0 2.28125 0.109375 2.890625q0.109375 0.59375 0.40625 1.15625l-1.703125 0q-0.265625 -0.515625 -0.328125 -1.1875zm-0.140625 -3.671875q-0.890625 0.375 -2.671875 0.625q-1.015625 0.140625 -1.4375 0.328125q-0.421875 0.1875 -0.65625 0.53125q-0.21875 0.34375 -0.21875 0.78125q0 0.65625 0.5 1.09375q0.5 0.4375 1.453125 0.4375q0.9375 0 1.671875 -0.40625q0.75 -0.421875 1.09375 -1.140625q0.265625 -0.5625 0.265625 -1.640625l0 -0.609375zm7.781967 3.390625l0.234375 1.453125q-0.6875 0.140625 -1.234375 0.140625q-0.890625 0 -1.390625 -0.28125q-0.484375 -0.28125 -0.6875 -0.734375q-0.203125 -0.46875 -0.203125 -1.9375l0 -5.578125l-1.203125 0l0 -1.265625l1.203125 0l0 -2.390625l1.625 -0.984375l0 3.375l1.65625 0l0 1.265625l-1.65625 0l0 5.671875q0 0.6875 0.078125 0.890625q0.09375 0.203125 0.28125 0.328125q0.203125 0.109375 0.578125 0.109375q0.265625 0 0.71875 -0.0625zm7.917679 -2.078125l1.609375 0.21875q-0.265625 1.65625 -1.359375 2.609375q-1.078125 0.9375 -2.671875 0.9375q-1.984375 0 -3.1875 -1.296875q-1.203125 -1.296875 -1.203125 -3.71875q0 -1.578125 0.515625 -2.75q0.515625 -1.171875 1.578125 -1.75q1.0625 -0.59375 2.3125 -0.59375q1.578125 0 2.578125 0.796875q1.0 0.796875 1.28125 2.265625l-1.59375 0.234375q-0.234375 -0.96875 -0.8125 -1.453125q-0.578125 -0.5 -1.390625 -0.5q-1.234375 0 -2.015625 0.890625q-0.78125 0.890625 -0.78125 2.8125q0 1.953125 0.75 2.84375q0.75 0.875 1.953125 0.875q0.96875 0 1.609375 -0.59375q0.65625 -0.59375 0.828125 -1.828125zm3.015625 3.546875l0 -13.359375l1.640625 0l0 4.796875q1.140625 -1.328125 2.890625 -1.328125q1.078125 0 1.859375 0.421875q0.796875 0.421875 1.140625 1.171875q0.34375 0.75 0.34375 2.171875l0 6.125l-1.640625 0l0 -6.125q0 -1.234375 -0.53125 -1.796875q-0.53125 -0.5625 -1.515625 -0.5625q-0.71875 0 -1.359375 0.390625q-0.640625 0.375 -0.921875 1.015625q-0.265625 0.640625 -0.265625 1.78125l0 5.296875l-1.640625 0zm15.559021 0l0 -9.671875l1.46875 0l0 1.375q1.0625 -1.59375 3.078125 -1.59375q0.875 0 1.609375 0.3125q0.734375 0.3125 1.09375 0.828125q0.375 0.5 0.515625 1.203125q0.09375 0.453125 0.09375 1.59375l0 5.953125l-1.640625 0l0 -5.890625q0 -1.0 -0.203125 -1.484375q-0.1875 -0.5 -0.671875 -0.796875q-0.484375 -0.296875 -1.140625 -0.296875q-1.046875 0 -1.8125 0.671875q-0.75 0.65625 -0.75 2.515625l0 5.28125l-1.640625 0zm9.766357 -4.84375q0 -2.6875 1.484375 -3.96875q1.25 -1.078125 3.046875 -1.078125q2.0 0 3.265625 1.3125q1.265625 1.296875 1.265625 3.609375q0 1.859375 -0.5625 2.9375q-0.5625 1.0625 -1.640625 1.65625q-1.0625 0.59375 -2.328125 0.59375q-2.03125 0 -3.28125 -1.296875q-1.25 -1.3125 -1.25 -3.765625zm1.6875 0q0 1.859375 0.796875 2.796875q0.8125 0.921875 2.046875 0.921875q1.21875 0 2.03125 -0.921875q0.8125 -0.9375 0.8125 -2.84375q0 -1.796875 -0.8125 -2.71875q-0.8125 -0.921875 -2.03125 -0.921875q-1.234375 0 -2.046875 0.921875q-0.796875 0.90625 -0.796875 2.765625zm9.281952 4.84375l0 -9.671875l1.46875 0l0 1.46875q0.5625 -1.03125 1.03125 -1.359375q0.484375 -0.328125 1.0625 -0.328125q0.828125 0 1.6875 0.53125l-0.5625 1.515625q-0.609375 -0.359375 -1.203125 -0.359375q-0.546875 0 -0.96875 0.328125q-0.421875 0.328125 -0.609375 0.890625q-0.28125 0.875 -0.28125 1.921875l0 5.0625l-1.625 0zm6.228302 0l0 -9.671875l1.46875 0l0 1.359375q0.453125 -0.71875 1.203125 -1.140625q0.765625 -0.4375 1.71875 -0.4375q1.078125 0 1.765625 0.453125q0.6875 0.4375 0.96875 1.234375q1.15625 -1.6875 2.984375 -1.6875q1.453125 0 2.21875 0.796875q0.78125 0.796875 0.78125 2.453125l0 6.640625l-1.640625 0l0 -6.09375q0 -0.984375 -0.15625 -1.40625q-0.15625 -0.4375 -0.578125 -0.703125q-0.421875 -0.265625 -0.984375 -0.265625q-1.015625 0 -1.6875 0.6875q-0.671875 0.671875 -0.671875 2.15625l0 5.625l-1.640625 0l0 -6.28125q0 -1.09375 -0.40625 -1.640625q-0.40625 -0.546875 -1.3125 -0.546875q-0.6875 0 -1.28125 0.359375q-0.59375 0.359375 -0.859375 1.0625q-0.25 0.703125 -0.25 2.03125l0 5.015625l-1.640625 0zm21.853302 -1.1875q-0.921875 0.765625 -1.765625 1.09375q-0.828125 0.3125 -1.796875 0.3125q-1.59375 0 -2.453125 -0.78125q-0.859375 -0.78125 -0.859375 -1.984375q0 -0.71875 0.328125 -1.296875q0.328125 -0.59375 0.84375 -0.9375q0.53125 -0.359375 1.1875 -0.546875q0.46875 -0.125 1.453125 -0.25q1.984375 -0.234375 2.921875 -0.5625q0.015625 -0.34375 0.015625 -0.421875q0 -1.0 -0.46875 -1.421875q-0.625 -0.546875 -1.875 -0.546875q-1.15625 0 -1.703125 0.40625q-0.546875 0.40625 -0.8125 1.421875l-1.609375 -0.21875q0.21875 -1.015625 0.71875 -1.640625q0.5 -0.640625 1.453125 -0.984375q0.953125 -0.34375 2.1875 -0.34375q1.25 0 2.015625 0.296875q0.78125 0.28125 1.140625 0.734375q0.375 0.4375 0.515625 1.109375q0.078125 0.421875 0.078125 1.515625l0 2.1875q0 2.28125 0.109375 2.890625q0.109375 0.59375 0.40625 1.15625l-1.703125 0q-0.265625 -0.515625 -0.328125 -1.1875zm-0.140625 -3.671875q-0.890625 0.375 -2.671875 0.625q-1.015625 0.140625 -1.4375 0.328125q-0.421875 0.1875 -0.65625 0.53125q-0.21875 0.34375 -0.21875 0.78125q0 0.65625 0.5 1.09375q0.5 0.4375 1.453125 0.4375q0.9375 0 1.671875 -0.40625q0.75 -0.421875 1.09375 -1.140625q0.265625 -0.5625 0.265625 -1.640625l0 -0.609375zm4.1569824 4.859375l0 -13.359375l1.640625 0l0 13.359375l-1.640625 0zm4.191681 -11.46875l0 -1.890625l1.640625 0l0 1.890625l-1.640625 0zm0 11.46875l0 -9.671875l1.640625 0l0 9.671875l-1.640625 0zm3.2698364 0l0 -1.328125l6.15625 -7.078125q-1.046875 0.0625 -1.84375 0.0625l-3.9375 0l0 -1.328125l7.90625 0l0 1.078125l-5.25 6.140625l-1.0 1.125q1.09375 -0.078125 2.0625 -0.078125l4.46875 0l0 1.40625l-8.5625 0zm16.515625 -1.1875q-0.921875 0.765625 -1.765625 1.09375q-0.828125 0.3125 -1.796875 0.3125q-1.59375 0 -2.453125 -0.78125q-0.859375 -0.78125 -0.859375 -1.984375q0 -0.71875 0.328125 -1.296875q0.328125 -0.59375 0.84375 -0.9375q0.53125 -0.359375 1.1875 -0.546875q0.46875 -0.125 1.453125 -0.25q1.984375 -0.234375 2.921875 -0.5625q0.015625 -0.34375 0.015625 -0.421875q0 -1.0 -0.46875 -1.421875q-0.625 -0.546875 -1.875 -0.546875q-1.15625 0 -1.703125 0.40625q-0.546875 0.40625 -0.8125 1.421875l-1.609375 -0.21875q0.21875 -1.015625 0.71875 -1.640625q0.5 -0.640625 1.453125 -0.984375q0.953125 -0.34375 2.1875 -0.34375q1.25 0 2.015625 0.296875q0.78125 0.28125 1.140625 0.734375q0.375 0.4375 0.515625 1.109375q0.078125 0.421875 0.078125 1.515625l0 2.1875q0 2.28125 0.109375 2.890625q0.109375 0.59375 0.40625 1.15625l-1.703125 0q-0.265625 -0.515625 -0.328125 -1.1875zm-0.140625 -3.671875q-0.890625 0.375 -2.671875 0.625q-1.015625 0.140625 -1.4375 0.328125q-0.421875 0.1875 -0.65625 0.53125q-0.21875 0.34375 -0.21875 0.78125q0 0.65625 0.5 1.09375q0.5 0.4375 1.453125 0.4375q0.9375 0 1.671875 -0.40625q0.75 -0.421875 1.09375 -1.140625q0.265625 -0.5625 0.265625 -1.640625l0 -0.609375zm7.781952 3.390625l0.234375 1.453125q-0.6875 0.140625 -1.234375 0.140625q-0.890625 0 -1.390625 -0.28125q-0.484375 -0.28125 -0.6875 -0.734375q-0.203125 -0.46875 -0.203125 -1.9375l0 -5.578125l-1.203125 0l0 -1.265625l1.203125 0l0 -2.390625l1.625 -0.984375l0 3.375l1.65625 0l0 1.265625l-1.65625 0l0 5.671875q0 0.6875 0.078125 0.890625q0.09375 0.203125 0.28125 0.328125q0.203125 0.109375 0.578125 0.109375q0.265625 0 0.71875 -0.0625zm1.6051941 -10.0l0 -1.890625l1.640625 0l0 1.890625l-1.640625 0zm0 11.46875l0 -9.671875l1.640625 0l0 9.671875l-1.640625 0zm3.535431 -4.84375q0 -2.6875 1.484375 -3.96875q1.25 -1.078125 3.046875 -1.078125q2.0 0 3.265625 1.3125q1.265625 1.296875 1.265625 3.609375q0 1.859375 -0.5625 2.9375q-0.5625 1.0625 -1.640625 1.65625q-1.0625 0.59375 -2.328125 0.59375q-2.03125 0 -3.28125 -1.296875q-1.25 -1.3125 -1.25 -3.765625zm1.6875 0q0 1.859375 0.796875 2.796875q0.8125 0.921875 2.046875 0.921875q1.21875 0 2.03125 -0.921875q0.8125 -0.9375 0.8125 -2.84375q0 -1.796875 -0.8125 -2.71875q-0.8125 -0.921875 -2.03125 -0.921875q-1.234375 0 -2.046875 0.921875q-0.796875 0.90625 -0.796875 2.765625zm9.297607 4.84375l0 -9.671875l1.46875 0l0 1.375q1.0625 -1.59375 3.078125 -1.59375q0.875 0 1.609375 0.3125q0.734375 0.3125 1.09375 0.828125q0.375 0.5 0.515625 1.203125q0.09375 0.453125 0.09375 1.59375l0 5.953125l-1.640625 0l0 -5.890625q0 -1.0 -0.203125 -1.484375q-0.1875 -0.5 -0.671875 -0.796875q-0.484375 -0.296875 -1.140625 -0.296875q-1.046875 0 -1.8125 0.671875q-0.75 0.65625 -0.75 2.515625l0 5.28125l-1.640625 0zm15.512146 0l0 -13.359375l1.640625 0l0 13.359375l-1.640625 0zm10.504181 -1.1875q-0.921875 0.765625 -1.765625 1.09375q-0.828125 0.3125 -1.796875 0.3125q-1.59375 0 -2.453125 -0.78125q-0.859375 -0.78125 -0.859375 -1.984375q0 -0.71875 0.328125 -1.296875q0.328125 -0.59375 0.84375 -0.9375q0.53125 -0.359375 1.1875 -0.546875q0.46875 -0.125 1.453125 -0.25q1.984375 -0.234375 2.921875 -0.5625q0.015625 -0.34375 0.015625 -0.421875q0 -1.0 -0.46875 -1.421875q-0.625 -0.546875 -1.875 -0.546875q-1.15625 0 -1.703125 0.40625q-0.546875 0.40625 -0.8125 1.421875l-1.609375 -0.21875q0.21875 -1.015625 0.71875 -1.640625q0.5 -0.640625 1.453125 -0.984375q0.953125 -0.34375 2.1875 -0.34375q1.25 0 2.015625 0.296875q0.78125 0.28125 1.140625 0.734375q0.375 0.4375 0.515625 1.109375q0.078125 0.421875 0.078125 1.515625l0 2.1875q0 2.28125 0.109375 2.890625q0.109375 0.59375 0.40625 1.15625l-1.703125 0q-0.265625 -0.515625 -0.328125 -1.1875zm-0.140625 -3.671875q-0.890625 0.375 -2.671875 0.625q-1.015625 0.140625 -1.4375 0.328125q-0.421875 0.1875 -0.65625 0.53125q-0.21875 0.34375 -0.21875 0.78125q0 0.65625 0.5 1.09375q0.5 0.4375 1.453125 0.4375q0.9375 0 1.671875 -0.40625q0.75 -0.421875 1.09375 -1.140625q0.265625 -0.5625 0.265625 -1.640625l0 -0.609375zm4.1257324 8.578125l-0.1875 -1.53125q0.546875 0.140625 0.9375 0.140625q0.546875 0 0.875 -0.1875q0.328125 -0.171875 0.546875 -0.5q0.15625 -0.25 0.5 -1.21875q0.046875 -0.140625 0.140625 -0.40625l-3.671875 -9.6875l1.765625 0l2.015625 5.59375q0.390625 1.078125 0.703125 2.25q0.28125 -1.125 0.671875 -2.203125l2.078125 -5.640625l1.640625 0l-3.6875 9.828125q-0.59375 1.609375 -0.921875 2.203125q-0.4375 0.8125 -1.0 1.1875q-0.5625 0.375 -1.34375 0.375q-0.484375 0 -1.0625 -0.203125zm16.03125 -6.828125l1.6875 0.203125q-0.40625 1.484375 -1.484375 2.3125q-1.078125 0.8125 -2.765625 0.8125q-2.125 0 -3.375 -1.296875q-1.234375 -1.3125 -1.234375 -3.671875q0 -2.453125 1.25 -3.796875q1.265625 -1.34375 3.265625 -1.34375q1.9375 0 3.15625 1.328125q1.234375 1.3125 1.234375 3.703125q0 0.15625 0 0.4375l-7.21875 0q0.09375 1.59375 0.90625 2.453125q0.8125 0.84375 2.015625 0.84375q0.90625 0 1.546875 -0.46875q0.640625 -0.484375 1.015625 -1.515625zm-5.390625 -2.65625l5.40625 0q-0.109375 -1.21875 -0.625 -1.828125q-0.78125 -0.953125 -2.03125 -0.953125q-1.125 0 -1.90625 0.765625q-0.765625 0.75 -0.84375 2.015625zm9.125702 5.765625l0 -9.671875l1.46875 0l0 1.46875q0.5625 -1.03125 1.03125 -1.359375q0.484375 -0.328125 1.0625 -0.328125q0.828125 0 1.6875 0.53125l-0.5625 1.515625q-0.609375 -0.359375 -1.203125 -0.359375q-0.546875 0 -0.96875 0.328125q-0.421875 0.328125 -0.609375 0.890625q-0.28125 0.875 -0.28125 1.921875l0 5.0625l-1.625 0z" fill-rule="nonzero"/><path fill="#000000" fill-opacity="0.0" d="m190.12073 574.3884l464.12598 0l0 21.102356l-464.12598 0z" fill-rule="evenodd"/><path fill="#000000" d="m200.58948 601.3085l0 -13.359375l5.921875 0q1.78125 0 2.703125 0.359375q0.9375 0.359375 1.484375 1.28125q0.5625 0.90625 0.5625 2.015625q0 1.40625 -0.921875 2.390625q-0.921875 0.96875 -2.84375 1.234375q0.703125 0.34375 1.078125 0.671875q0.765625 0.703125 1.453125 1.765625l2.328125 3.640625l-2.21875 0l-1.765625 -2.78125q-0.78125 -1.203125 -1.28125 -1.828125q-0.5 -0.640625 -0.90625 -0.890625q-0.390625 -0.265625 -0.796875 -0.359375q-0.296875 -0.078125 -0.984375 -0.078125l-2.046875 0l0 5.9375l-1.765625 0zm1.765625 -7.453125l3.796875 0q1.21875 0 1.890625 -0.25q0.6875 -0.265625 1.046875 -0.8125q0.359375 -0.546875 0.359375 -1.1875q0 -0.953125 -0.6875 -1.5625q-0.6875 -0.609375 -2.1875 -0.609375l-4.21875 0l0 4.421875zm18.097946 4.34375l1.6875 0.203125q-0.40625 1.484375 -1.484375 2.3125q-1.078125 0.8125 -2.765625 0.8125q-2.125 0 -3.375 -1.296875q-1.234375 -1.3125 -1.234375 -3.671875q0 -2.453125 1.25 -3.796875q1.265625 -1.34375 3.265625 -1.34375q1.9375 0 3.15625 1.328125q1.234375 1.3125 1.234375 3.703125q0 0.15625 0 0.4375l-7.21875 0q0.09375 1.59375 0.90625 2.453125q0.8125 0.84375 2.015625 0.84375q0.90625 0 1.546875 -0.46875q0.640625 -0.484375 1.015625 -1.515625zm-5.390625 -2.65625l5.40625 0q-0.109375 -1.21875 -0.625 -1.828125q-0.78125 -0.953125 -2.03125 -0.953125q-1.125 0 -1.90625 0.765625q-0.765625 0.75 -0.84375 2.015625zm9.266342 5.765625l0 -13.359375l1.78125 0l0 11.78125l6.5625 0l0 1.578125l-8.34375 0zm19.219467 -13.359375l1.765625 0l0 7.71875q0 2.015625 -0.453125 3.203125q-0.453125 1.1875 -1.640625 1.9375q-1.1875 0.734375 -3.125 0.734375q-1.875 0 -3.078125 -0.640625q-1.1875 -0.65625 -1.703125 -1.875q-0.5 -1.234375 -0.5 -3.359375l0 -7.71875l1.765625 0l0 7.71875q0 1.734375 0.3125 2.5625q0.328125 0.8125 1.109375 1.265625q0.796875 0.453125 1.9375 0.453125q1.953125 0 2.78125 -0.890625q0.828125 -0.890625 0.828125 -3.390625l0 -7.71875zm9.640625 13.359375l0 -13.359375l1.640625 0l0 13.359375l-1.640625 0zm10.504196 -1.1875q-0.921875 0.765625 -1.765625 1.09375q-0.828125 0.3125 -1.796875 0.3125q-1.59375 0 -2.453125 -0.78125q-0.859375 -0.78125 -0.859375 -1.984375q0 -0.71875 0.328125 -1.296875q0.328125 -0.59375 0.84375 -0.9375q0.53125 -0.359375 1.1875 -0.546875q0.46875 -0.125 1.453125 -0.25q1.984375 -0.234375 2.921875 -0.5625q0.015625 -0.34375 0.015625 -0.421875q0 -1.0 -0.46875 -1.421875q-0.625 -0.546875 -1.875 -0.546875q-1.15625 0 -1.703125 0.40625q-0.546875 0.40625 -0.8125 1.421875l-1.609375 -0.21875q0.21875 -1.015625 0.71875 -1.640625q0.5 -0.640625 1.453125 -0.984375q0.953125 -0.34375 2.1875 -0.34375q1.25 0 2.015625 0.296875q0.78125 0.28125 1.140625 0.734375q0.375 0.4375 0.515625 1.109375q0.078125 0.421875 0.078125 1.515625l0 2.1875q0 2.28125 0.109375 2.890625q0.109375 0.59375 0.40625 1.15625l-1.703125 0q-0.265625 -0.515625 -0.328125 -1.1875zm-0.140625 -3.671875q-0.890625 0.375 -2.671875 0.625q-1.015625 0.140625 -1.4375 0.328125q-0.421875 0.1875 -0.65625 0.53125q-0.21875 0.34375 -0.21875 0.78125q0 0.65625 0.5 1.09375q0.5 0.4375 1.453125 0.4375q0.9375 0 1.671875 -0.40625q0.75 -0.421875 1.09375 -1.140625q0.265625 -0.5625 0.265625 -1.640625l0 -0.609375zm4.1257324 8.578125l-0.1875 -1.53125q0.546875 0.140625 0.9375 0.140625q0.546875 0 0.875 -0.1875q0.328125 -0.171875 0.546875 -0.5q0.15625 -0.25 0.5 -1.21875q0.046875 -0.140625 0.140625 -0.40625l-3.671875 -9.6875l1.765625 0l2.015625 5.59375q0.390625 1.078125 0.703125 2.25q0.28125 -1.125 0.671875 -2.203125l2.078125 -5.640625l1.640625 0l-3.6875 9.828125q-0.59375 1.609375 -0.921875 2.203125q-0.4375 0.8125 -1.0 1.1875q-0.5625 0.375 -1.34375 0.375q-0.484375 0 -1.0625 -0.203125zm16.03125 -6.828125l1.6875 0.203125q-0.40625 1.484375 -1.484375 2.3125q-1.078125 0.8125 -2.765625 0.8125q-2.125 0 -3.375 -1.296875q-1.234375 -1.3125 -1.234375 -3.671875q0 -2.453125 1.25 -3.796875q1.265625 -1.34375 3.265625 -1.34375q1.9375 0 3.15625 1.328125q1.234375 1.3125 1.234375 3.703125q0 0.15625 0 0.4375l-7.21875 0q0.09375 1.59375 0.90625 2.453125q0.8125 0.84375 2.015625 0.84375q0.90625 0 1.546875 -0.46875q0.640625 -0.484375 1.015625 -1.515625zm-5.390625 -2.65625l5.40625 0q-0.109375 -1.21875 -0.625 -1.828125q-0.78125 -0.953125 -2.03125 -0.953125q-1.125 0 -1.90625 0.765625q-0.765625 0.75 -0.84375 2.015625zm9.125702 5.765625l0 -9.671875l1.46875 0l0 1.46875q0.5625 -1.03125 1.03125 -1.359375q0.484375 -0.328125 1.0625 -0.328125q0.828125 0 1.6875 0.53125l-0.5625 1.515625q-0.609375 -0.359375 -1.203125 -0.359375q-0.546875 0 -0.96875 0.328125q-0.421875 0.328125 -0.609375 0.890625q-0.28125 0.875 -0.28125 1.921875l0 5.0625l-1.625 0z" fill-rule="nonzero"/></g></svg>